0
SECTION
2
HEADER
9
$INSUNITS
70
4
9
$ACADVER
1
AC1014
9
$HANDSEED
5
FFFF
0
ENDSEC
0
SECTION
2
TABLES
0
TABLE
2
VPORT
5
8
100
AcDbSymbolTable
0
ENDTAB
0
TABLE
2
LTYPE
5
5
100
AcDbSymbolTable
0
LTYPE
5
14
100
AcDbSymbolTableRecord
100
AcDbLinetypeTableRecord
2
BYBLOCK
70
0
0
LTYPE
5
15
100
AcDbSymbolTableRecord
100
AcDbLinetypeTableRecord
2
BYLAYER
70
0
0
ENDTAB
0
TABLE
2
LAYER
5
2
100
AcDbSymbolTable
70
2
0
LAYER
5
50
100
AcDbSymbolTableRecord
100
AcDbLayerTableRecord
2
0
70
0
6
CONTINUOUS
0
ENDTAB
0
TABLE
2
STYLE
5
3
100
AcDbSymbolTable
70
1
0
STYLE
5
11
100
AcDbSymbolTableRecord
100
AcDbTextStyleTableRecord
2
STANDARD
70
0
0
ENDTAB
0
TABLE
2
VIEW
5
6
100
AcDbSymbolTable
70
0
0
ENDTAB
0
TABLE
2
UCS
5
7
100
AcDbSymbolTable
70
0
0
ENDTAB
0
TABLE
2
APPID
5
9
100
AcDbSymbolTable
70
2
0
APPID
5
12
100
AcDbSymbolTableRecord
100
AcDbRegAppTableRecord
2
ACAD
70
0
0
ENDTAB
0
TABLE
2
DIMSTYLE
5
A
100
AcDbSymbolTable
70
1
0
ENDTAB
0
TABLE
2
BLOCK_RECORD
5
1
100
AcDbSymbolTable
70
1
0
BLOCK_RECORD
5
1F
100
AcDbSymbolTableRecord
100
AcDbBlockTableRecord
2
*MODEL_SPACE
0
BLOCK_RECORD
5
1B
100
AcDbSymbolTableRecord
100
AcDbBlockTableRecord
2
*PAPER_SPACE
0
ENDTAB
0
ENDSEC
0
SECTION
2
BLOCKS
0
BLOCK
5
20
100
AcDbEntity
100
AcDbBlockBegin
2
*MODEL_SPACE
0
ENDBLK
5
21
100
AcDbEntity
100
AcDbBlockEnd
0
BLOCK
5
1C
100
AcDbEntity
100
AcDbBlockBegin
2
*PAPER_SPACE
0
ENDBLK
5
1D
100
AcDbEntity
100
AcDbBlockEnd
0
ENDSEC
0
SECTION
2
ENTITIES
0
LWPOLYLINE
5
100
100
AcDbEntity
8
0
100
AcDbPolyline
90
25
70
1
43
0.0
10
-93.508354578822463
20
-56.573698381684466
42
0.41460096903937776
10
-89.28595424567952
20
-57.015445551451911
10
-73.982583654283189
20
-44.594099985740897
10
14.093421885849175
20
-17.186106559446436
42
0.30436951547805707
10
16.190611502982051
20
-14.583064257141253
10
20.245350971751854
20
31.762786757771252
42
0.4147017859801857
10
17.513253137220136
20
35.013269863802506
10
-2.5320865999999995
20
36.733352465718305
10
-2.532086600000004
20
61.051956000000004
42
0.41421356237309453
10
-5.5320865999999969
20
64.051956000000004
10
-21.532074000000001
20
64.051956000000004
10
-21.532074000000001
20
67.051943999999992
42
0.41421356237309681
10
-24.532074000000001
20
70.051943999999992
10
-53.332133999999996
20
70.051943999999992
42
0.41421356237309681
10
-56.332133999999996
20
67.051943999999992
10
-56.332133999999996
20
60.051963999999998
10
-72.332096000000007
20
60.051963999999991
42
0.41421356237309936
10
-75.332096000000007
20
57.051963999999998
10
-75.332096000000007
20
54.05197600000001
10
-109.71810199999999
20
54.05197600000001
42
0.41421356237309076
10
-112.71810200000002
20
51.05197600000001
10
-112.71810200000002
20
9.5250000000000021
10
-112.71810200000002
20
-0.52500021999999813
10
-112.71810200000002
20
-31.780748201423386
42
0.17178453157919549
10
-112.04988383738032
20
-33.66828454885178
0
CIRCLE
5
101
100
AcDbEntity
8
0
100
AcDbCircle
10
31.197873178564329
20
-28.138210986826291
30
0
40
1.2
210
1.2246467991473532e-16
220
0
230
-1
0
CIRCLE
5
102
100
AcDbEntity
8
0
100
AcDbCircle
10
75.42507570954993
20
-41.901083959991617
30
0
40
1.2
210
1.2246467991473532e-16
220
0
230
-1
0
CIRCLE
5
103
100
AcDbEntity
8
0
100
AcDbCircle
10
109.71810199999977
20
-31.7807482014233
30
0
40
1.2
210
1.2246467991473532e-16
220
0
230
-1
0
CIRCLE
5
104
100
AcDbEntity
8
0
100
AcDbCircle
10
-13.202027424962953
20
-14.321596843089834
30
0
40
1.2
210
1.2246467991473532e-16
220
0
230
-1
0
CIRCLE
5
105
100
AcDbEntity
8
0
100
AcDbCircle
10
-17.25676689373276
20
32.024254171822662
30
0
40
1.2
210
1.2246467991473532e-16
220
0
230
-1
0
CIRCLE
5
106
100
AcDbEntity
8
0
100
AcDbCircle
10
53.332134000000011
20
67.051944000000006
30
0
40
1.2
210
1.2246467991473532e-16
220
0
230
-1
0
CIRCLE
5
107
100
AcDbEntity
8
0
100
AcDbCircle
10
24.532073999999994
20
67.051944000000006
30
0
40
1.2
210
1.2246467991473532e-16
220
0
230
-1
0
CIRCLE
5
108
100
AcDbEntity
8
0
100
AcDbCircle
10
5.5320866000000022
20
61.051956000000004
30
0
40
1.2
210
1.2246467991473532e-16
220
0
230
-1
0
CIRCLE
5
109
100
AcDbEntity
8
0
100
AcDbCircle
10
109.71810199999999
20
51.051975999999982
30
0
40
1.2
210
1.2246467991473532e-16
220
0
230
-1
0
CIRCLE
5
110
100
AcDbEntity
8
0
100
AcDbCircle
10
91.176572741442158
20
-54.686162034256078
30
0
40
1.2
210
1.2246467991473532e-16
220
0
230
-1
0
CIRCLE
5
111
100
AcDbEntity
8
0
100
AcDbCircle
10
109.718102
20
11.051975999999986
30
0
40
1.2
210
1.2246467991473532e-16
220
0
230
-1
0
CIRCLE
5
112
100
AcDbEntity
8
0
100
AcDbCircle
10
72.332096000000035
20
57.051964000000019
30
0
40
1.2
210
1.2246467991473532e-16
220
0
230
-1
0
CIRCLE
5
113
100
AcDbEntity
8
0
100
AcDbCircle
10
5.5320866000000049
20
33.979756594133505
30
0
40
1.2000000000000004
210
1.2246467991473532e-16
220
0
230
-1
0
ENDSEC
0
SECTION
2
OBJECTS
0
DICTIONARY
5
C
100
AcDbDictionary
3
ACAD_GROUP
350
D
3
ACAD_MLINESTYLE
350
17
0
DICTIONARY
5
D
100
AcDbDictionary
0
DICTIONARY
5
1A
330
C
100
AcDbDictionary
0
DICTIONARY
5
17
100
AcDbDictionary
0
ENDSEC
0
EOF
