0
SECTION
2
HEADER
9
$INSUNITS
70
4
9
$ACADVER
1
AC1014
9
$HANDSEED
5
FFFF
0
ENDSEC
0
SECTION
2
TABLES
0
TABLE
2
VPORT
5
8
100
AcDbSymbolTable
0
ENDTAB
0
TABLE
2
LTYPE
5
5
100
AcDbSymbolTable
0
LTYPE
5
14
100
AcDbSymbolTableRecord
100
AcDbLinetypeTableRecord
2
BYBLOCK
70
0
0
LTYPE
5
15
100
AcDbSymbolTableRecord
100
AcDbLinetypeTableRecord
2
BYLAYER
70
0
0
ENDTAB
0
TABLE
2
LAYER
5
2
100
AcDbSymbolTable
70
2
0
LAYER
5
50
100
AcDbSymbolTableRecord
100
AcDbLayerTableRecord
2
0
70
0
6
CONTINUOUS
0
ENDTAB
0
TABLE
2
STYLE
5
3
100
AcDbSymbolTable
70
1
0
STYLE
5
11
100
AcDbSymbolTableRecord
100
AcDbTextStyleTableRecord
2
STANDARD
70
0
0
ENDTAB
0
TABLE
2
VIEW
5
6
100
AcDbSymbolTable
70
0
0
ENDTAB
0
TABLE
2
UCS
5
7
100
AcDbSymbolTable
70
0
0
ENDTAB
0
TABLE
2
APPID
5
9
100
AcDbSymbolTable
70
2
0
APPID
5
12
100
AcDbSymbolTableRecord
100
AcDbRegAppTableRecord
2
ACAD
70
0
0
ENDTAB
0
TABLE
2
DIMSTYLE
5
A
100
AcDbSymbolTable
70
1
0
ENDTAB
0
TABLE
2
BLOCK_RECORD
5
1
100
AcDbSymbolTable
70
1
0
BLOCK_RECORD
5
1F
100
AcDbSymbolTableRecord
100
AcDbBlockTableRecord
2
*MODEL_SPACE
0
BLOCK_RECORD
5
1B
100
AcDbSymbolTableRecord
100
AcDbBlockTableRecord
2
*PAPER_SPACE
0
ENDTAB
0
ENDSEC
0
SECTION
2
BLOCKS
0
BLOCK
5
20
100
AcDbEntity
100
AcDbBlockBegin
2
*MODEL_SPACE
0
ENDBLK
5
21
100
AcDbEntity
100
AcDbBlockEnd
0
BLOCK
5
1C
100
AcDbEntity
100
AcDbBlockBegin
2
*PAPER_SPACE
0
ENDBLK
5
1D
100
AcDbEntity
100
AcDbBlockEnd
0
ENDSEC
0
SECTION
2
ENTITIES
0
LWPOLYLINE
5
100
100
AcDbEntity
8
0
100
AcDbPolyline
90
97
70
1
43
0.0
10
9.5058483999999996
20
30.332171999999996
10
9.5089471999999997
20
30.33522
10
9.5120968000000001
20
30.33979200000001
10
9.5156273999999961
20
30.344110000000004
10
9.5176593999999994
20
30.347919999999998
10
9.5200977999999985
20
30.351476000000002
10
9.5222821999999994
20
30.356556000000001
10
9.5248983999999997
20
30.361636000000001
10
9.5261683999999995
20
30.365700000000004
10
9.5278447999999987
20
30.369510000000002
10
9.5290132000000014
20
30.375098000000005
10
9.5306388000000002
20
30.380432000000006
10
9.5310451999999994
20
30.38475
10
9.5319342000000002
20
30.388814000000004
10
9.5320104000000008
20
30.394401999999999
10
9.5320865999999995
20
30.395164000000001
10
9.5320865999999995
20
30.399481999999995
10
9.5321881999999984
20
30.408626000000005
10
9.5320865999999995
20
30.409134000000009
10
9.5320865999999995
20
57.051955999999997
10
28.427171999999995
20
57.051955999999997
10
28.431998000000007
20
57.051447999999993
10
28.43707800000001
20
57.051955999999997
10
28.451556
20
57.053480000000008
10
28.470605999999997
20
57.059068000000011
10
28.487878000000002
20
57.068466000000001
10
28.503118000000001
20
57.080911999999998
10
28.515564000000001
20
57.096151999999989
10
28.524962000000002
20
57.113424000000002
10
28.530550000000005
20
57.132220000000004
10
28.532582000000005
20
57.152032000000013
10
28.532074000000005
20
57.156857999999993
10
28.532074000000005
20
63.051943999999992
10
49.332133999999996
20
63.051943999999992
10
49.332133999999996
20
53.156866000000001
10
49.331626
20
53.152040000000014
10
49.333404000000002
20
53.132228000000019
10
49.33924600000001
20
53.113432000000003
10
49.348643999999993
20
53.096159999999998
10
49.361090000000004
20
53.080919999999992
10
49.37633000000001
20
53.068473999999988
10
49.393602000000001
20
53.059076000000012
10
49.41239800000001
20
53.053488000000009
10
49.427130000000012
20
53.051963999999998
10
49.431956000000028
20
53.051456000000023
10
49.437035999999999
20
53.051963999999998
10
68.332096000000007
20
53.051963999999998
10
68.332096000000007
20
47.156878000000006
10
68.331588000000011
20
47.152051999999998
10
68.333619999999996
20
47.132240000000003
10
68.339207999999999
20
47.113444000000008
10
68.348606000000004
20
47.096172000000003
10
68.361052000000001
20
47.080931999999997
10
68.376291999999992
20
47.068486000000007
10
68.393563999999998
20
47.059088000000003
10
68.412360000000007
20
47.0535
10
68.427091999999988
20
47.05197600000001
10
68.432171999999994
20
47.051468000000007
10
68.436998000000003
20
47.05197600000001
10
105.71810200000002
20
47.05197600000001
10
105.71810200000002
20
9.5250000000000021
10
105.71810200000002
20
-0.52500021999999813
10
105.71810200000002
20
-30.364684000000004
10
90.587576000000013
20
-49.05628999999999
10
77.367384000000001
20
-38.325806000000007
10
77.36433599999998
20
-38.322758000000007
10
77.359763999999998
20
-38.319710000000015
10
77.359256000000016
20
-38.319201999999997
10
77.355700000000013
20
-38.316915999999999
10
77.348079999999982
20
-38.311836
10
77.347318000000001
20
-38.311582000000001
10
77.346810000000005
20
-38.311074000000012
10
77.338427999999993
20
-38.307772
10
77.334363999999994
20
-38.305994000000013
10
77.333856000000026
20
-38.30574
10
77.328521999999978
20
-38.303708
10
77.324457999999964
20
-38.302946000000013
10
-9.4511368000000004
20
-11.299621800000001
10
-12.922783399999993
20
28.381451999999999
10
9.4314517999999996
20
30.29966000000001
10
9.4320867999999987
20
30.299406000000001
10
9.4411546000000008
20
30.300422000000005
10
9.4454980000000006
20
30.300676000000003
10
9.4461329999999997
20
30.300930000000005
10
9.4516702000000006
20
30.301438000000005
10
9.4557850000000006
20
30.302708000000006
10
9.4600267999999961
20
30.303470000000004
10
9.4652084000000016
20
30.305502000000004
10
9.4705169999999992
20
30.307279999999999
10
9.4743270000000006
20
30.309311999999995
10
9.4783147999999997
20
30.310836000000002
10
9.4829884
20
30.313884000000005
10
9.4878906000000001
20
30.316424000000005
10
9.4912180000000017
20
30.319217999999999
10
9.4948501999999984
20
30.321504000000004
10
9.4988379999999992
20
30.325313999999999
10
9.5031305999999987
20
30.328870000000002
0
LWPOLYLINE
5
101
100
AcDbEntity
8
0
100
AcDbPolyline
90
4
70
1
43
0.0
10
-6.4541839766803433
20
-7.6917718540495859
10
-7.6917791424869977
20
6.4541942920138231
10
6.4541870035725344
20
7.6917894578201382
10
7.6917821693791888
20
-6.4541766882432707
0
LWPOLYLINE
5
102
100
AcDbEntity
8
0
100
AcDbPolyline
90
4
70
1
43
0.0
10
6.0358848993442429
20
12.473601379204855
10
-8.1100726970765216
20
11.235908493219029
10
-9.3477655830631008
20
25.381866089648412
10
4.7981920133576628
20
26.619558975634238
0
LWPOLYLINE
5
103
100
AcDbEntity
8
0
100
AcDbPolyline
90
4
70
1
43
0.0
10
84.032089999999982
20
43.752008000000004
10
84.032089999999982
20
29.552008000000001
10
69.832089999999994
20
29.552008000000001
10
69.832089999999994
20
43.752008000000004
0
LWPOLYLINE
5
104
100
AcDbEntity
8
0
100
AcDbPolyline
90
4
70
1
43
0.0
10
84.032089999999982
20
-8.4480429999999984
10
69.832089999999994
20
-8.4480429999999984
10
69.832089999999994
20
5.7519570000000009
10
84.032089999999982
20
5.7519570000000009
0
CIRCLE
5
105
100
AcDbEntity
8
0
100
AcDbCircle
10
96.149997850880027
20
4.2999999038875103
30
0
40
2.7000000000000002
210
0
220
0
230
1
0
LWPOLYLINE
5
106
100
AcDbEntity
8
0
100
AcDbPolyline
90
4
70
1
43
0.0
10
65.032127999999986
20
11.751944999999999
10
65.032127999999986
20
-2.4480550000000001
10
50.83212799999999
20
-2.4480550000000001
10
50.83212799999999
20
11.751944999999999
0
LWPOLYLINE
5
107
100
AcDbEntity
8
0
100
AcDbPolyline
90
4
70
1
43
0.0
10
84.032089999999982
20
24.751944399999999
10
84.032089999999982
20
10.551944400000002
10
69.832089999999994
20
10.551944400000002
10
69.832089999999994
20
24.751944399999999
0
LINE
5
108
100
AcDbEntity
8
0
100
AcDbLine
10
-13.131012599999998
20
28.483560000000004
30
0
11
-13.131012599999998
21
28.483560000000004
31
0
0
LWPOLYLINE
5
109
100
AcDbEntity
8
0
100
AcDbPolyline
90
4
70
1
43
0.0
10
65.032127999999986
20
30.752033999999998
10
65.032127999999986
20
16.552033999999999
10
50.83212799999999
20
16.552033999999999
10
50.83212799999999
20
30.752033999999998
0
LWPOLYLINE
5
110
100
AcDbEntity
8
0
100
AcDbPolyline
90
4
70
1
43
0.0
10
65.032127999999986
20
49.751995999999998
10
65.032127999999986
20
35.551996000000003
10
50.83212799999999
20
35.551996000000003
10
50.83212799999999
20
49.751995999999998
0
LWPOLYLINE
5
111
100
AcDbEntity
8
0
100
AcDbPolyline
90
4
70
1
43
0.0
10
46.032165999999997
20
26.552014
10
31.832165999999997
20
26.552014
10
31.832165999999997
20
40.752014000000003
10
46.032165999999997
20
40.752014000000003
0
LWPOLYLINE
5
112
100
AcDbEntity
8
0
100
AcDbPolyline
90
4
70
1
43
0.0
10
46.032165999999997
20
7.5519503999999982
10
31.832165999999997
20
7.5519503999999982
10
31.832165999999997
20
21.751950399999998
10
46.032165999999997
20
21.751950399999998
0
LINE
5
113
100
AcDbEntity
8
0
100
AcDbLine
10
90.593164000000002
20
-49.297082000000003
30
0
11
90.592910000000003
21
-49.297082000000003
31
0
0
LWPOLYLINE
5
114
100
AcDbEntity
8
0
100
AcDbPolyline
90
4
70
1
43
0.0
10
12.831949999999996
20
34.752026000000001
10
27.031949999999995
20
34.752026000000001
10
27.031949999999995
20
20.552026000000005
10
12.831949999999996
20
20.552026000000005
0
LWPOLYLINE
5
115
100
AcDbEntity
8
0
100
AcDbPolyline
90
4
70
1
43
0.0
10
46.032165999999997
20
59.751976000000006
10
46.032165999999997
20
45.551976000000003
10
31.832165999999997
20
45.551976000000003
10
31.832165999999997
20
59.751976000000006
0
LWPOLYLINE
5
116
100
AcDbEntity
8
0
100
AcDbPolyline
90
4
70
1
43
0.0
10
12.831949999999996
20
39.551987999999994
10
12.831949999999996
20
53.751987999999997
10
27.031949999999995
20
53.751987999999997
10
27.031949999999995
20
39.551987999999994
0
LINE
5
117
100
AcDbEntity
8
0
100
AcDbLine
10
90.623136000000017
20
-49.295050000000003
30
0
11
90.612722000000019
21
-49.297082000000003
31
0
0
LINE
5
118
100
AcDbEntity
8
0
100
AcDbLine
10
90.612722000000019
20
-49.297082000000003
30
0
11
90.612722000000019
21
-49.297082000000003
31
0
0
LINE
5
119
100
AcDbEntity
8
0
100
AcDbLine
10
90.573606000000012
20
-49.293526000000021
30
0
11
90.573606000000012
21
-49.293526000000021
31
0
0
LINE
5
120
100
AcDbEntity
8
0
100
AcDbLine
10
90.632025999999996
20
-49.293018000000004
30
0
11
90.623136000000017
21
-49.295050000000003
31
0
0
LWPOLYLINE
5
121
100
AcDbEntity
8
0
100
AcDbPolyline
90
4
70
1
43
0.0
10
12.831949999999996
20
1.551937000000001
10
12.831949999999996
20
15.751937
10
27.031949999999995
20
15.751937
10
27.031949999999995
20
1.551937000000001
0
LWPOLYLINE
5
122
100
AcDbEntity
8
0
100
AcDbPolyline
90
4
70
1
43
0.0
10
79.064165556932224
20
-35.478784830799768
10
88.000568165941075
20
-24.443355142305542
10
99.035997854435308
20
-33.379757751314401
10
90.099595245426443
20
-44.415187439808633
0
LWPOLYLINE
5
123
100
AcDbEntity
8
0
100
AcDbPolyline
90
4
70
1
43
0.0
10
42.066441458344954
20
-24.061702689269218
10
46.218402243456531
20
-10.482261550588452
10
59.797843382137295
20
-14.634222335700029
10
55.645882597025718
20
-28.213663474380795
0
LWPOLYLINE
5
124
100
AcDbEntity
8
0
100
AcDbPolyline
90
4
70
1
43
0.0
10
64.387814201430572
20
-16.03767846355753
10
77.967396486552985
20
-20.189177581816772
10
73.815897367957291
20
-33.768759868039687
10
60.236315082834878
20
-29.617260749780449
0
LINE
5
125
100
AcDbEntity
8
0
100
AcDbLine
10
90.612722000000019
20
-49.297082000000003
30
0
11
90.603577999999985
21
-49.297082000000003
31
0
0
LINE
5
126
100
AcDbEntity
8
0
100
AcDbLine
10
90.641424000000001
20
-49.289208000000002
30
0
11
90.632025999999996
21
-49.293018000000004
31
0
0
LINE
5
127
100
AcDbEntity
8
0
100
AcDbLine
10
90.650314000000023
20
-49.285398000000001
30
0
11
90.650059999999996
21
-49.285398000000001
31
0
0
LINE
5
128
100
AcDbEntity
8
0
100
AcDbLine
10
90.650059999999996
20
-49.285398000000001
30
0
11
90.641424000000001
21
-49.289208000000002
31
0
0
LINE
5
129
100
AcDbEntity
8
0
100
AcDbLine
10
90.573606000000012
20
-49.293526000000021
30
0
11
90.573606000000012
21
-49.293526000000021
31
0
0
LINE
5
130
100
AcDbEntity
8
0
100
AcDbLine
10
90.592910000000003
20
-49.297082000000003
30
0
11
90.583766000000011
21
-49.295304000000009
31
0
0
LINE
5
131
100
AcDbEntity
8
0
100
AcDbLine
10
90.650059999999996
20
-49.285398000000001
30
0
11
90.650059999999996
21
-49.285398000000001
31
0
0
LINE
5
132
100
AcDbEntity
8
0
100
AcDbLine
10
90.666315999999995
20
-49.274476000000007
30
0
11
90.65818800000001
21
-49.28006400000001
31
0
0
LINE
5
133
100
AcDbEntity
8
0
100
AcDbLine
10
90.666569999999993
20
-49.274476000000007
30
0
11
90.666569999999993
21
-49.274476000000007
31
0
0
LINE
5
134
100
AcDbEntity
8
0
100
AcDbLine
10
90.632025999999996
20
-49.293018000000004
30
0
11
90.632025999999996
21
-49.293018000000004
31
0
0
LINE
5
135
100
AcDbEntity
8
0
100
AcDbLine
10
90.632025999999996
20
-49.293018000000004
30
0
11
90.632025999999996
21
-49.293018000000004
31
0
0
LINE
5
136
100
AcDbEntity
8
0
100
AcDbLine
10
90.603577999999985
20
-49.297082000000003
30
0
11
90.593164000000002
21
-49.297082000000003
31
0
0
LINE
5
137
100
AcDbEntity
8
0
100
AcDbLine
10
90.612722000000019
20
-49.297082000000003
30
0
11
90.612722000000019
21
-49.297082000000003
31
0
0
LINE
5
138
100
AcDbEntity
8
0
100
AcDbLine
10
90.666569999999993
20
-49.274476000000007
30
0
11
90.666315999999995
21
-49.274476000000007
31
0
0
LINE
5
139
100
AcDbEntity
8
0
100
AcDbLine
10
90.65818800000001
20
-49.28006400000001
30
0
11
90.650314000000023
21
-49.285398000000001
31
0
0
LINE
5
140
100
AcDbEntity
8
0
100
AcDbLine
10
90.592910000000003
20
-49.297082000000003
30
0
11
90.592910000000003
21
-49.297082000000003
31
0
0
LINE
5
141
100
AcDbEntity
8
0
100
AcDbLine
10
90.583766000000011
20
-49.295304000000009
30
0
11
90.573606000000012
21
-49.293526000000021
31
0
0
CIRCLE
5
142
100
AcDbEntity
8
0
100
AcDbCircle
10
8.633456776392487
20
10.290826393126489
30
0
40
1.2
210
0
220
0
230
1
0
CIRCLE
5
143
100
AcDbEntity
8
0
100
AcDbCircle
10
29.449999341741204
20
43.149999035522342
30
0
40
1.2
210
0
220
0
230
1
0
CIRCLE
5
144
100
AcDbEntity
8
0
100
AcDbCircle
10
67.432005110500356
20
33.150495603904425
30
0
40
1.2
210
0
220
0
230
1
0
CIRCLE
5
145
100
AcDbEntity
8
0
100
AcDbCircle
10
40.414436279197226
20
-16.131885203694669
30
0
40
1.2
210
0
220
0
230
1
0
CIRCLE
5
146
100
AcDbEntity
8
0
100
AcDbCircle
10
79.649174741442977
20
-28.141921011125731
30
0
40
1.2
210
0
220
0
230
1
0
ENDSEC
0
SECTION
2
OBJECTS
0
DICTIONARY
5
C
100
AcDbDictionary
3
ACAD_GROUP
350
D
3
ACAD_MLINESTYLE
350
17
0
DICTIONARY
5
D
100
AcDbDictionary
0
DICTIONARY
5
1A
330
C
100
AcDbDictionary
0
DICTIONARY
5
17
100
AcDbDictionary
0
ENDSEC
0
EOF
