0
SECTION
2
HEADER
9
$INSUNITS
70
4
9
$ACADVER
1
AC1014
9
$HANDSEED
5
FFFF
0
ENDSEC
0
SECTION
2
TABLES
0
TABLE
2
VPORT
5
8
100
AcDbSymbolTable
0
ENDTAB
0
TABLE
2
LTYPE
5
5
100
AcDbSymbolTable
0
LTYPE
5
14
100
AcDbSymbolTableRecord
100
AcDbLinetypeTableRecord
2
BYBLOCK
70
0
0
LTYPE
5
15
100
AcDbSymbolTableRecord
100
AcDbLinetypeTableRecord
2
BYLAYER
70
0
0
ENDTAB
0
TABLE
2
LAYER
5
2
100
AcDbSymbolTable
70
2
0
LAYER
5
50
100
AcDbSymbolTableRecord
100
AcDbLayerTableRecord
2
0
70
0
6
CONTINUOUS
0
ENDTAB
0
TABLE
2
STYLE
5
3
100
AcDbSymbolTable
70
1
0
STYLE
5
11
100
AcDbSymbolTableRecord
100
AcDbTextStyleTableRecord
2
STANDARD
70
0
0
ENDTAB
0
TABLE
2
VIEW
5
6
100
AcDbSymbolTable
70
0
0
ENDTAB
0
TABLE
2
UCS
5
7
100
AcDbSymbolTable
70
0
0
ENDTAB
0
TABLE
2
APPID
5
9
100
AcDbSymbolTable
70
2
0
APPID
5
12
100
AcDbSymbolTableRecord
100
AcDbRegAppTableRecord
2
ACAD
70
0
0
ENDTAB
0
TABLE
2
DIMSTYLE
5
A
100
AcDbSymbolTable
70
1
0
ENDTAB
0
TABLE
2
BLOCK_RECORD
5
1
100
AcDbSymbolTable
70
1
0
BLOCK_RECORD
5
1F
100
AcDbSymbolTableRecord
100
AcDbBlockTableRecord
2
*MODEL_SPACE
0
BLOCK_RECORD
5
1B
100
AcDbSymbolTableRecord
100
AcDbBlockTableRecord
2
*PAPER_SPACE
0
ENDTAB
0
ENDSEC
0
SECTION
2
BLOCKS
0
BLOCK
5
20
100
AcDbEntity
100
AcDbBlockBegin
2
*MODEL_SPACE
0
ENDBLK
5
21
100
AcDbEntity
100
AcDbBlockEnd
0
BLOCK
5
1C
100
AcDbEntity
100
AcDbBlockBegin
2
*PAPER_SPACE
0
ENDBLK
5
1D
100
AcDbEntity
100
AcDbBlockEnd
0
ENDSEC
0
SECTION
2
ENTITIES
0
LWPOLYLINE
5
100
100
AcDbEntity
8
0
100
AcDbPolyline
90
4
70
1
43
0.0
10
-84.032089999999982
20
24.751944399999999
10
-84.032089999999982
20
10.551944400000002
10
-69.832089999999994
20
10.551944400000002
10
-69.832089999999994
20
24.751944399999999
0
CIRCLE
5
101
100
AcDbEntity
8
0
100
AcDbCircle
10
109.718102
20
11.051975999999986
30
0
40
1.2
210
1.2246467991473532e-16
220
0
230
-1
0
LWPOLYLINE
5
102
100
AcDbEntity
8
0
100
AcDbPolyline
90
4
70
1
43
0.0
10
-6.0358848993442429
20
12.473601379204855
10
8.1100726970765216
20
11.235908493219029
10
9.3477655830631008
20
25.381866089648412
10
-4.7981920133576628
20
26.619558975634238
0
LWPOLYLINE
5
103
100
AcDbEntity
8
0
100
AcDbPolyline
90
25
70
1
43
0.0
10
-75.332096000000007
20
57.051963999999998
10
-75.332096000000007
20
54.05197600000001
10
-109.71810199999999
20
54.05197600000001
42
0.41421356237309076
10
-112.71810200000002
20
51.05197600000001
10
-112.71810200000002
20
9.5250000000000021
10
-112.71810200000002
20
-0.52500021999999813
10
-112.71810200000002
20
-31.780748201423386
42
0.17178453157919549
10
-112.04988383738032
20
-33.66828454885178
10
-93.508354578822463
20
-56.573698381684466
42
0.41460096903937776
10
-89.28595424567952
20
-57.015445551451911
10
-73.982583654283189
20
-44.594099985740897
10
14.093421885849175
20
-17.186106559446436
42
0.30436951547805707
10
16.190611502982051
20
-14.583064257141253
10
20.245350971751854
20
31.762786757771252
42
0.4147017859801857
10
17.513253137220136
20
35.013269863802506
10
-2.5320865999999995
20
36.733352465718305
10
-2.532086600000004
20
61.051956000000004
42
0.41421356237309453
10
-5.5320865999999969
20
64.051956000000004
10
-21.532074000000001
20
64.051956000000004
10
-21.532074000000001
20
67.051943999999992
42
0.41421356237309681
10
-24.532074000000001
20
70.051943999999992
10
-53.332133999999996
20
70.051943999999992
42
0.41421356237309681
10
-56.332133999999996
20
67.051943999999992
10
-56.332133999999996
20
60.051963999999998
10
-72.332096000000007
20
60.051963999999991
42
0.41421356237309936
0
LWPOLYLINE
5
104
100
AcDbEntity
8
0
100
AcDbPolyline
90
4
70
1
43
0.0
10
-7.6917821693791888
20
-6.4541766882432707
10
6.4541839766803433
20
-7.6917718540495859
10
7.6917791424869977
20
6.4541942920138231
10
-6.4541870035725344
20
7.6917894578201382
0
LWPOLYLINE
5
105
100
AcDbEntity
8
0
100
AcDbPolyline
90
4
70
1
43
0.0
10
-88.000568165941075
20
-24.443355142305542
10
-99.035997854435308
20
-33.379757751314401
10
-90.099595245426443
20
-44.415187439808633
10
-79.064165556932224
20
-35.478784830799768
0
LWPOLYLINE
5
106
100
AcDbEntity
8
0
100
AcDbPolyline
90
4
70
1
43
0.0
10
-42.066441458344954
20
-24.061702689269218
10
-46.218402243456531
20
-10.482261550588452
10
-59.797843382137295
20
-14.634222335700029
10
-55.645882597025718
20
-28.213663474380795
0
LWPOLYLINE
5
107
100
AcDbEntity
8
0
100
AcDbPolyline
90
4
70
1
43
0.0
10
-65.032127999999986
20
-2.4480550000000001
10
-50.83212799999999
20
-2.4480550000000001
10
-50.83212799999999
20
11.751944999999999
10
-65.032127999999986
20
11.751944999999999
0
LWPOLYLINE
5
108
100
AcDbEntity
8
0
100
AcDbPolyline
90
4
70
1
43
0.0
10
-46.032165999999997
20
59.751976000000006
10
-46.032165999999997
20
45.551976000000003
10
-31.832165999999997
20
45.551976000000003
10
-31.832165999999997
20
59.751976000000006
0
CIRCLE
5
109
100
AcDbEntity
8
0
100
AcDbCircle
10
91.176572741442158
20
-54.686162034256078
30
0
40
1.2
210
1.2246467991473532e-16
220
0
230
-1
0
LWPOLYLINE
5
110
100
AcDbEntity
8
0
100
AcDbPolyline
90
4
70
1
43
0.0
10
-77.967396486552985
20
-20.189177581816772
10
-73.815897367957291
20
-33.768759868039687
10
-60.236315082834878
20
-29.617260749780449
10
-64.387814201430572
20
-16.03767846355753
0
LWPOLYLINE
5
111
100
AcDbEntity
8
0
100
AcDbPolyline
90
4
70
1
43
0.0
10
-27.031949999999995
20
1.551937000000001
10
-12.831949999999996
20
1.551937000000001
10
-12.831949999999996
20
15.751937
10
-27.031949999999995
20
15.751937
0
CIRCLE
5
112
100
AcDbEntity
8
0
100
AcDbCircle
10
53.332134000000011
20
67.051944000000006
30
0
40
1.2
210
1.2246467991473532e-16
220
0
230
-1
0
CIRCLE
5
113
100
AcDbEntity
8
0
100
AcDbCircle
10
96.149997850880027
20
4.2999999038875103
30
0
40
2.7000000000000002
210
1.2246467991473532e-16
220
0
230
-1
0
CIRCLE
5
114
100
AcDbEntity
8
0
100
AcDbCircle
10
31.197873178564329
20
-28.138210986826291
30
0
40
1.2
210
1.2246467991473532e-16
220
0
230
-1
0
CIRCLE
5
115
100
AcDbEntity
8
0
100
AcDbCircle
10
109.71810199999977
20
-31.7807482014233
30
0
40
1.2
210
1.2246467991473532e-16
220
0
230
-1
0
CIRCLE
5
116
100
AcDbEntity
8
0
100
AcDbCircle
10
109.71810199999999
20
51.051975999999982
30
0
40
1.2
210
1.2246467991473532e-16
220
0
230
-1
0
LWPOLYLINE
5
117
100
AcDbEntity
8
0
100
AcDbPolyline
90
4
70
1
43
0.0
10
-84.032089999999982
20
43.752008000000004
10
-84.032089999999982
20
29.552008000000001
10
-69.832089999999994
20
29.552008000000001
10
-69.832089999999994
20
43.752008000000004
0
LWPOLYLINE
5
118
100
AcDbEntity
8
0
100
AcDbPolyline
90
4
70
1
43
0.0
10
-69.832089999999994
20
5.7519570000000009
10
-84.032089999999982
20
5.7519570000000009
10
-84.032089999999982
20
-8.4480429999999984
10
-69.832089999999994
20
-8.4480429999999984
0
LWPOLYLINE
5
119
100
AcDbEntity
8
0
100
AcDbPolyline
90
4
70
1
43
0.0
10
-65.032127999999986
20
30.752033999999998
10
-65.032127999999986
20
16.552033999999999
10
-50.83212799999999
20
16.552033999999999
10
-50.83212799999999
20
30.752033999999998
0
LWPOLYLINE
5
120
100
AcDbEntity
8
0
100
AcDbPolyline
90
4
70
1
43
0.0
10
-31.832165999999997
20
7.5519503999999982
10
-31.832165999999997
20
21.751950399999998
10
-46.032165999999997
20
21.751950399999998
10
-46.032165999999997
20
7.5519503999999982
0
CIRCLE
5
121
100
AcDbEntity
8
0
100
AcDbCircle
10
-13.202027424962953
20
-14.321596843089834
30
0
40
1.2
210
1.2246467991473532e-16
220
0
230
-1
0
LWPOLYLINE
5
122
100
AcDbEntity
8
0
100
AcDbPolyline
90
4
70
1
43
0.0
10
-46.032165999999997
20
26.552014
10
-31.832165999999997
20
26.552014
10
-31.832165999999997
20
40.752014000000003
10
-46.032165999999997
20
40.752014000000003
0
LWPOLYLINE
5
123
100
AcDbEntity
8
0
100
AcDbPolyline
90
4
70
1
43
0.0
10
-27.031949999999995
20
39.551987999999994
10
-12.831949999999996
20
39.551987999999994
10
-12.831949999999996
20
53.751987999999997
10
-27.031949999999995
20
53.751987999999997
0
CIRCLE
5
124
100
AcDbEntity
8
0
100
AcDbCircle
10
75.42507570954993
20
-41.901083959991617
30
0
40
1.2
210
1.2246467991473532e-16
220
0
230
-1
0
CIRCLE
5
125
100
AcDbEntity
8
0
100
AcDbCircle
10
24.532073999999994
20
67.051944000000006
30
0
40
1.2
210
1.2246467991473532e-16
220
0
230
-1
0
LWPOLYLINE
5
126
100
AcDbEntity
8
0
100
AcDbPolyline
90
4
70
1
43
0.0
10
-12.831949999999996
20
34.752026000000001
10
-27.031949999999995
20
34.752026000000001
10
-27.031949999999995
20
20.552026000000005
10
-12.831949999999996
20
20.552026000000005
0
LWPOLYLINE
5
127
100
AcDbEntity
8
0
100
AcDbPolyline
90
4
70
1
43
0.0
10
-65.032127999999986
20
35.551996000000003
10
-50.83212799999999
20
35.551996000000003
10
-50.83212799999999
20
49.751995999999998
10
-65.032127999999986
20
49.751995999999998
0
CIRCLE
5
128
100
AcDbEntity
8
0
100
AcDbCircle
10
5.5320866000000022
20
61.051956000000004
30
0
40
1.2
210
1.2246467991473532e-16
220
0
230
-1
0
CIRCLE
5
129
100
AcDbEntity
8
0
100
AcDbCircle
10
72.332096000000035
20
57.051964000000019
30
0
40
1.2
210
1.2246467991473532e-16
220
0
230
-1
0
CIRCLE
5
130
100
AcDbEntity
8
0
100
AcDbCircle
10
-17.25676689373276
20
32.024254171822662
30
0
40
1.2
210
1.2246467991473532e-16
220
0
230
-1
0
CIRCLE
5
131
100
AcDbEntity
8
0
100
AcDbCircle
10
5.5320866000000049
20
33.979756594133505
30
0
40
1.2000000000000004
210
1.2246467991473532e-16
220
0
230
-1
0
ENDSEC
0
SECTION
2
OBJECTS
0
DICTIONARY
5
C
100
AcDbDictionary
3
ACAD_GROUP
350
D
3
ACAD_MLINESTYLE
350
17
0
DICTIONARY
5
D
100
AcDbDictionary
0
DICTIONARY
5
1A
330
C
100
AcDbDictionary
0
DICTIONARY
5
17
100
AcDbDictionary
0
ENDSEC
0
EOF
