  0
SECTION
  2
HEADER
  9
$ANGBASE
  50
0.0
  9
$ANGDIR
  70
1
  9
$MEASUREMENT
  70
0
  0
ENDSEC
  0
SECTION
  2
TABLES
  0
TABLE
  2
LTYPE
  70
4
  0
LTYPE
  5
40F
  2
CONTINUOUS
  70
0
  3
Solid line
  72
65
  73
0
  40
0.0
  0
LTYPE
  5
410
  2
DASHDOT
 70
0
  3
Dash Dot ____ _ ____ _
 72
65
 73
4
 40
2.0
 49
1.25
 49
-0.25
 49
0.25
 49
-0.25
  0
LTYPE
  5
411
  2
DASHED
 70
0
  3
Dashed __ __ __ __ __
 72
65
 73
2
 40
0.75
 49
0.5
 49
-0.25
  0
LTYPE
  5
43B
  2
DOTTED
 70
0
  3
Dotted .  .  .  .
 72
65
 73
2
 40
0.2
 49
0.0
 49
-0.2
  0
ENDTAB
  0
TABLE
  2
STYLE
  70
4
  0
STYLE
  2
KICAD
  70
0
  40
0
  41
1
  42
1
  50
0
  71
0
  3
isocp.shx
  0
STYLE
  2
KICADB
  70
0
  40
0
  41
1
  42
1
  50
0
  71
0
  3
isocp.shx
  0
STYLE
  2
KICADI
  70
0
  40
0
  41
1
  42
1
  50
15
  71
0
  3
isocp.shx
  0
STYLE
  2
KICADBI
  70
0
  40
0
  41
1
  42
1
  50
15
  71
0
  3
isocp.shx
  0
ENDTAB
  0
TABLE
  2
LAYER
  70
1
  0
LAYER
  2
BLACK
  70
0
  62
7
  6
CONTINUOUS
  0
ENDTAB
  0
ENDSEC
  0
SECTION
  2
ENTITIES
0
LINE
8
BLACK
6
CONTINUOUS
10
3.15881
20
-1.02756
11
3.17386
21
-1.03379
0
LINE
8
BLACK
6
CONTINUOUS
10
3.17386
20
-1.03379
11
3.1874
21
-1.04284
0
LINE
8
BLACK
6
CONTINUOUS
10
3.1874
20
-1.04284
11
3.19891
21
-1.05435
0
LINE
8
BLACK
6
CONTINUOUS
10
3.19891
20
-1.05435
11
3.20796
21
-1.06789
0
LINE
8
BLACK
6
CONTINUOUS
10
3.20796
20
-1.06789
11
3.21419
21
-1.08294
0
LINE
8
BLACK
6
CONTINUOUS
10
3.21419
20
-1.08294
11
3.21737
21
-1.09891
0
LINE
8
BLACK
6
CONTINUOUS
10
3.21737
20
-1.09891
11
3.21737
21
-1.1152
0
LINE
8
BLACK
6
CONTINUOUS
10
3.21737
20
-1.1152
11
3.21419
21
-1.13117
0
LINE
8
BLACK
6
CONTINUOUS
10
3.21419
20
-1.13117
11
3.20796
21
-1.14622
0
LINE
8
BLACK
6
CONTINUOUS
10
3.20796
20
-1.14622
11
3.19891
21
-1.15976
0
LINE
8
BLACK
6
CONTINUOUS
10
3.19891
20
-1.15976
11
3.1874
21
-1.17127
0
LINE
8
BLACK
6
CONTINUOUS
10
3.1874
20
-1.17127
11
3.17386
21
-1.18032
0
LINE
8
BLACK
6
CONTINUOUS
10
3.17386
20
-1.18032
11
3.15881
21
-1.18656
0
LINE
8
BLACK
6
CONTINUOUS
10
3.15881
20
-1.18656
11
3.14284
21
-1.18973
0
LINE
8
BLACK
6
CONTINUOUS
10
3.14284
20
-1.18973
11
3.12655
21
-1.18973
0
LINE
8
BLACK
6
CONTINUOUS
10
3.12655
20
-1.18973
11
3.11058
21
-1.18656
0
LINE
8
BLACK
6
CONTINUOUS
10
3.11058
20
-1.18656
11
3.09553
21
-1.18032
0
LINE
8
BLACK
6
CONTINUOUS
10
3.09553
20
-1.18032
11
3.08199
21
-1.17127
0
LINE
8
BLACK
6
CONTINUOUS
10
3.08199
20
-1.17127
11
3.07047
21
-1.15976
0
LINE
8
BLACK
6
CONTINUOUS
10
3.07047
20
-1.15976
11
3.06143
21
-1.14622
0
LINE
8
BLACK
6
CONTINUOUS
10
3.06143
20
-1.14622
11
3.05519
21
-1.13117
0
LINE
8
BLACK
6
CONTINUOUS
10
3.05519
20
-1.13117
11
3.05202
21
-1.1152
0
LINE
8
BLACK
6
CONTINUOUS
10
3.05202
20
-1.1152
11
3.05202
21
-1.09891
0
LINE
8
BLACK
6
CONTINUOUS
10
3.05202
20
-1.09891
11
3.05519
21
-1.08294
0
LINE
8
BLACK
6
CONTINUOUS
10
3.05519
20
-1.08294
11
3.06143
21
-1.06789
0
LINE
8
BLACK
6
CONTINUOUS
10
3.06143
20
-1.06789
11
3.07047
21
-1.05435
0
LINE
8
BLACK
6
CONTINUOUS
10
3.07047
20
-1.05435
11
3.08199
21
-1.04284
0
LINE
8
BLACK
6
CONTINUOUS
10
3.08199
20
-1.04284
11
3.09553
21
-1.03379
0
LINE
8
BLACK
6
CONTINUOUS
10
3.09553
20
-1.03379
11
3.11058
21
-1.02756
0
LINE
8
BLACK
6
CONTINUOUS
10
3.11058
20
-1.02756
11
3.12655
21
-1.02438
0
LINE
8
BLACK
6
CONTINUOUS
10
3.12655
20
-1.02438
11
3.14284
21
-1.02438
0
LINE
8
BLACK
6
CONTINUOUS
10
3.14284
20
-1.02438
11
3.15881
21
-1.02756
0
LINE
8
BLACK
6
CONTINUOUS
10
1.61517
20
-0.555617
11
1.63021
21
-0.561849
0
LINE
8
BLACK
6
CONTINUOUS
10
1.63021
20
-0.561849
11
1.64376
21
-0.570897
0
LINE
8
BLACK
6
CONTINUOUS
10
1.64376
20
-0.570897
11
1.65527
21
-0.582413
0
LINE
8
BLACK
6
CONTINUOUS
10
1.65527
20
-0.582413
11
1.66432
21
-0.595954
0
LINE
8
BLACK
6
CONTINUOUS
10
1.66432
20
-0.595954
11
1.67055
21
-0.611001
0
LINE
8
BLACK
6
CONTINUOUS
10
1.67055
20
-0.611001
11
1.67373
21
-0.626974
0
LINE
8
BLACK
6
CONTINUOUS
10
1.67373
20
-0.626974
11
1.67373
21
-0.64326
0
LINE
8
BLACK
6
CONTINUOUS
10
1.67373
20
-0.64326
11
1.67055
21
-0.659233
0
LINE
8
BLACK
6
CONTINUOUS
10
1.67055
20
-0.659233
11
1.66432
21
-0.674279
0
LINE
8
BLACK
6
CONTINUOUS
10
1.66432
20
-0.674279
11
1.65527
21
-0.68782
0
LINE
8
BLACK
6
CONTINUOUS
10
1.65527
20
-0.68782
11
1.64376
21
-0.699336
0
LINE
8
BLACK
6
CONTINUOUS
10
1.64376
20
-0.699336
11
1.63021
21
-0.708384
0
LINE
8
BLACK
6
CONTINUOUS
10
1.63021
20
-0.708384
11
1.61517
21
-0.714617
0
LINE
8
BLACK
6
CONTINUOUS
10
1.61517
20
-0.714617
11
1.5992
21
-0.717794
0
LINE
8
BLACK
6
CONTINUOUS
10
1.5992
20
-0.717794
11
1.58291
21
-0.717794
0
LINE
8
BLACK
6
CONTINUOUS
10
1.58291
20
-0.717794
11
1.56694
21
-0.714617
0
LINE
8
BLACK
6
CONTINUOUS
10
1.56694
20
-0.714617
11
1.55189
21
-0.708384
0
LINE
8
BLACK
6
CONTINUOUS
10
1.55189
20
-0.708384
11
1.53835
21
-0.699336
0
LINE
8
BLACK
6
CONTINUOUS
10
1.53835
20
-0.699336
11
1.52683
21
-0.68782
0
LINE
8
BLACK
6
CONTINUOUS
10
1.52683
20
-0.68782
11
1.51778
21
-0.674279
0
LINE
8
BLACK
6
CONTINUOUS
10
1.51778
20
-0.674279
11
1.51155
21
-0.659233
0
LINE
8
BLACK
6
CONTINUOUS
10
1.51155
20
-0.659233
11
1.50837
21
-0.64326
0
LINE
8
BLACK
6
CONTINUOUS
10
1.50837
20
-0.64326
11
1.50837
21
-0.626974
0
LINE
8
BLACK
6
CONTINUOUS
10
1.50837
20
-0.626974
11
1.51155
21
-0.611001
0
LINE
8
BLACK
6
CONTINUOUS
10
1.51155
20
-0.611001
11
1.51778
21
-0.595954
0
LINE
8
BLACK
6
CONTINUOUS
10
1.51778
20
-0.595954
11
1.52683
21
-0.582413
0
LINE
8
BLACK
6
CONTINUOUS
10
1.52683
20
-0.582413
11
1.53835
21
-0.570897
0
LINE
8
BLACK
6
CONTINUOUS
10
1.53835
20
-0.570897
11
1.55189
21
-0.561849
0
LINE
8
BLACK
6
CONTINUOUS
10
1.55189
20
-0.561849
11
1.56694
21
-0.555617
0
LINE
8
BLACK
6
CONTINUOUS
10
1.56694
20
-0.555617
11
1.58291
21
-0.552439
0
LINE
8
BLACK
6
CONTINUOUS
10
1.58291
20
-0.552439
11
1.5992
21
-0.552439
0
LINE
8
BLACK
6
CONTINUOUS
10
1.5992
20
-0.552439
11
1.61517
21
-0.555617
0
LINE
8
BLACK
6
CONTINUOUS
10
3.51468
20
0.336542
11
3.53367
21
0.328677
0
LINE
8
BLACK
6
CONTINUOUS
10
3.53367
20
0.328677
11
3.55076
21
0.317259
0
LINE
8
BLACK
6
CONTINUOUS
10
3.55076
20
0.317259
11
3.56529
21
0.302727
0
LINE
8
BLACK
6
CONTINUOUS
10
3.56529
20
0.302727
11
3.57671
21
0.28564
0
LINE
8
BLACK
6
CONTINUOUS
10
3.57671
20
0.28564
11
3.58457
21
0.266653
0
LINE
8
BLACK
6
CONTINUOUS
10
3.58457
20
0.266653
11
3.58858
21
0.246496
0
LINE
8
BLACK
6
CONTINUOUS
10
3.58858
20
0.246496
11
3.58858
21
0.225945
0
LINE
8
BLACK
6
CONTINUOUS
10
3.58858
20
0.225945
11
3.58457
21
0.205788
0
LINE
8
BLACK
6
CONTINUOUS
10
3.58457
20
0.205788
11
3.57671
21
0.186801
0
LINE
8
BLACK
6
CONTINUOUS
10
3.57671
20
0.186801
11
3.56529
21
0.169714
0
LINE
8
BLACK
6
CONTINUOUS
10
3.56529
20
0.169714
11
3.55076
21
0.155182
0
LINE
8
BLACK
6
CONTINUOUS
10
3.55076
20
0.155182
11
3.53367
21
0.143764
0
LINE
8
BLACK
6
CONTINUOUS
10
3.53367
20
0.143764
11
3.51468
21
0.135899
0
LINE
8
BLACK
6
CONTINUOUS
10
3.51468
20
0.135899
11
3.49453
21
0.13189
0
LINE
8
BLACK
6
CONTINUOUS
10
3.49453
20
0.13189
11
3.47398
21
0.13189
0
LINE
8
BLACK
6
CONTINUOUS
10
3.47398
20
0.13189
11
3.45382
21
0.135899
0
LINE
8
BLACK
6
CONTINUOUS
10
3.45382
20
0.135899
11
3.43483
21
0.143764
0
LINE
8
BLACK
6
CONTINUOUS
10
3.43483
20
0.143764
11
3.41775
21
0.155182
0
LINE
8
BLACK
6
CONTINUOUS
10
3.41775
20
0.155182
11
3.40321
21
0.169714
0
LINE
8
BLACK
6
CONTINUOUS
10
3.40321
20
0.169714
11
3.3918
21
0.186801
0
LINE
8
BLACK
6
CONTINUOUS
10
3.3918
20
0.186801
11
3.38393
21
0.205788
0
LINE
8
BLACK
6
CONTINUOUS
10
3.38393
20
0.205788
11
3.37992
21
0.225945
0
LINE
8
BLACK
6
CONTINUOUS
10
3.37992
20
0.225945
11
3.37992
21
0.246496
0
LINE
8
BLACK
6
CONTINUOUS
10
3.37992
20
0.246496
11
3.38393
21
0.266653
0
LINE
8
BLACK
6
CONTINUOUS
10
3.38393
20
0.266653
11
3.3918
21
0.28564
0
LINE
8
BLACK
6
CONTINUOUS
10
3.3918
20
0.28564
11
3.40321
21
0.302727
0
LINE
8
BLACK
6
CONTINUOUS
10
3.40321
20
0.302727
11
3.41775
21
0.317259
0
LINE
8
BLACK
6
CONTINUOUS
10
3.41775
20
0.317259
11
3.43483
21
0.328677
0
LINE
8
BLACK
6
CONTINUOUS
10
3.43483
20
0.328677
11
3.45382
21
0.336542
0
LINE
8
BLACK
6
CONTINUOUS
10
3.45382
20
0.336542
11
3.47398
21
0.340551
0
LINE
8
BLACK
6
CONTINUOUS
10
3.47398
20
0.340551
11
3.49453
21
0.340551
0
LINE
8
BLACK
6
CONTINUOUS
10
3.49453
20
0.340551
11
3.51468
21
0.336542
0
LINE
8
BLACK
6
CONTINUOUS
10
3.82964
20
0.336542
11
3.84863
21
0.328677
0
LINE
8
BLACK
6
CONTINUOUS
10
3.84863
20
0.328677
11
3.86572
21
0.317259
0
LINE
8
BLACK
6
CONTINUOUS
10
3.86572
20
0.317259
11
3.88025
21
0.302727
0
LINE
8
BLACK
6
CONTINUOUS
10
3.88025
20
0.302727
11
3.89167
21
0.28564
0
LINE
8
BLACK
6
CONTINUOUS
10
3.89167
20
0.28564
11
3.89953
21
0.266653
0
LINE
8
BLACK
6
CONTINUOUS
10
3.89953
20
0.266653
11
3.90354
21
0.246496
0
LINE
8
BLACK
6
CONTINUOUS
10
3.90354
20
0.246496
11
3.90354
21
0.225945
0
LINE
8
BLACK
6
CONTINUOUS
10
3.90354
20
0.225945
11
3.89953
21
0.205788
0
LINE
8
BLACK
6
CONTINUOUS
10
3.89953
20
0.205788
11
3.89167
21
0.186801
0
LINE
8
BLACK
6
CONTINUOUS
10
3.89167
20
0.186801
11
3.88025
21
0.169714
0
LINE
8
BLACK
6
CONTINUOUS
10
3.88025
20
0.169714
11
3.86572
21
0.155182
0
LINE
8
BLACK
6
CONTINUOUS
10
3.86572
20
0.155182
11
3.84863
21
0.143764
0
LINE
8
BLACK
6
CONTINUOUS
10
3.84863
20
0.143764
11
3.82964
21
0.135899
0
LINE
8
BLACK
6
CONTINUOUS
10
3.82964
20
0.135899
11
3.80949
21
0.13189
0
LINE
8
BLACK
6
CONTINUOUS
10
3.80949
20
0.13189
11
3.78894
21
0.13189
0
LINE
8
BLACK
6
CONTINUOUS
10
3.78894
20
0.13189
11
3.76878
21
0.135899
0
LINE
8
BLACK
6
CONTINUOUS
10
3.76878
20
0.135899
11
3.74979
21
0.143764
0
LINE
8
BLACK
6
CONTINUOUS
10
3.74979
20
0.143764
11
3.73271
21
0.155182
0
LINE
8
BLACK
6
CONTINUOUS
10
3.73271
20
0.155182
11
3.71817
21
0.169714
0
LINE
8
BLACK
6
CONTINUOUS
10
3.71817
20
0.169714
11
3.70676
21
0.186801
0
LINE
8
BLACK
6
CONTINUOUS
10
3.70676
20
0.186801
11
3.69889
21
0.205788
0
LINE
8
BLACK
6
CONTINUOUS
10
3.69889
20
0.205788
11
3.69488
21
0.225945
0
LINE
8
BLACK
6
CONTINUOUS
10
3.69488
20
0.225945
11
3.69488
21
0.246496
0
LINE
8
BLACK
6
CONTINUOUS
10
3.69488
20
0.246496
11
3.69889
21
0.266653
0
LINE
8
BLACK
6
CONTINUOUS
10
3.69889
20
0.266653
11
3.70676
21
0.28564
0
LINE
8
BLACK
6
CONTINUOUS
10
3.70676
20
0.28564
11
3.71817
21
0.302727
0
LINE
8
BLACK
6
CONTINUOUS
10
3.71817
20
0.302727
11
3.73271
21
0.317259
0
LINE
8
BLACK
6
CONTINUOUS
10
3.73271
20
0.317259
11
3.74979
21
0.328677
0
LINE
8
BLACK
6
CONTINUOUS
10
3.74979
20
0.328677
11
3.76878
21
0.336542
0
LINE
8
BLACK
6
CONTINUOUS
10
3.76878
20
0.336542
11
3.78894
21
0.340551
0
LINE
8
BLACK
6
CONTINUOUS
10
3.78894
20
0.340551
11
3.80949
21
0.340551
0
LINE
8
BLACK
6
CONTINUOUS
10
3.80949
20
0.340551
11
3.82964
21
0.336542
0
LINE
8
BLACK
6
CONTINUOUS
10
0.364111
20
0.48469
11
0.379157
21
0.478458
0
LINE
8
BLACK
6
CONTINUOUS
10
0.379157
20
0.478458
11
0.392699
21
0.46941
0
LINE
8
BLACK
6
CONTINUOUS
10
0.392699
20
0.46941
11
0.404214
21
0.457894
0
LINE
8
BLACK
6
CONTINUOUS
10
0.404214
20
0.457894
11
0.413262
21
0.444352
0
LINE
8
BLACK
6
CONTINUOUS
10
0.413262
20
0.444352
11
0.419495
21
0.429306
0
LINE
8
BLACK
6
CONTINUOUS
10
0.419495
20
0.429306
11
0.422672
21
0.413333
0
LINE
8
BLACK
6
CONTINUOUS
10
0.422672
20
0.413333
11
0.422672
21
0.397047
0
LINE
8
BLACK
6
CONTINUOUS
10
0.422672
20
0.397047
11
0.419495
21
0.381074
0
LINE
8
BLACK
6
CONTINUOUS
10
0.419495
20
0.381074
11
0.413262
21
0.366028
0
LINE
8
BLACK
6
CONTINUOUS
10
0.413262
20
0.366028
11
0.404214
21
0.352486
0
LINE
8
BLACK
6
CONTINUOUS
10
0.404214
20
0.352486
11
0.392699
21
0.340971
0
LINE
8
BLACK
6
CONTINUOUS
10
0.392699
20
0.340971
11
0.379157
21
0.331923
0
LINE
8
BLACK
6
CONTINUOUS
10
0.379157
20
0.331923
11
0.364111
21
0.32569
0
LINE
8
BLACK
6
CONTINUOUS
10
0.364111
20
0.32569
11
0.348138
21
0.322513
0
LINE
8
BLACK
6
CONTINUOUS
10
0.348138
20
0.322513
11
0.331852
21
0.322513
0
LINE
8
BLACK
6
CONTINUOUS
10
0.331852
20
0.322513
11
0.315879
21
0.32569
0
LINE
8
BLACK
6
CONTINUOUS
10
0.315879
20
0.32569
11
0.300833
21
0.331923
0
LINE
8
BLACK
6
CONTINUOUS
10
0.300833
20
0.331923
11
0.287291
21
0.340971
0
LINE
8
BLACK
6
CONTINUOUS
10
0.287291
20
0.340971
11
0.275775
21
0.352486
0
LINE
8
BLACK
6
CONTINUOUS
10
0.275775
20
0.352486
11
0.266727
21
0.366028
0
LINE
8
BLACK
6
CONTINUOUS
10
0.266727
20
0.366028
11
0.260495
21
0.381074
0
LINE
8
BLACK
6
CONTINUOUS
10
0.260495
20
0.381074
11
0.257318
21
0.397047
0
LINE
8
BLACK
6
CONTINUOUS
10
0.257318
20
0.397047
11
0.257318
21
0.413333
0
LINE
8
BLACK
6
CONTINUOUS
10
0.257318
20
0.413333
11
0.260495
21
0.429306
0
LINE
8
BLACK
6
CONTINUOUS
10
0.260495
20
0.429306
11
0.266727
21
0.444352
0
LINE
8
BLACK
6
CONTINUOUS
10
0.266727
20
0.444352
11
0.275775
21
0.457894
0
LINE
8
BLACK
6
CONTINUOUS
10
0.275775
20
0.457894
11
0.287291
21
0.46941
0
LINE
8
BLACK
6
CONTINUOUS
10
0.287291
20
0.46941
11
0.300833
21
0.478458
0
LINE
8
BLACK
6
CONTINUOUS
10
0.300833
20
0.478458
11
0.315879
21
0.48469
0
LINE
8
BLACK
6
CONTINUOUS
10
0.315879
20
0.48469
11
0.331852
21
0.487867
0
LINE
8
BLACK
6
CONTINUOUS
10
0.331852
20
0.487867
11
0.348138
21
0.487867
0
LINE
8
BLACK
6
CONTINUOUS
10
0.348138
20
0.487867
11
0.364111
21
0.48469
0
LINE
8
BLACK
6
CONTINUOUS
10
2.67892
20
1.38469
11
2.69397
21
1.37846
0
LINE
8
BLACK
6
CONTINUOUS
10
2.69397
20
1.37846
11
2.70751
21
1.36941
0
LINE
8
BLACK
6
CONTINUOUS
10
2.70751
20
1.36941
11
2.71903
21
1.3579
0
LINE
8
BLACK
6
CONTINUOUS
10
2.71903
20
1.3579
11
2.72807
21
1.34436
0
LINE
8
BLACK
6
CONTINUOUS
10
2.72807
20
1.34436
11
2.73431
21
1.32931
0
LINE
8
BLACK
6
CONTINUOUS
10
2.73431
20
1.32931
11
2.73748
21
1.31334
0
LINE
8
BLACK
6
CONTINUOUS
10
2.73748
20
1.31334
11
2.73748
21
1.29705
0
LINE
8
BLACK
6
CONTINUOUS
10
2.73748
20
1.29705
11
2.73431
21
1.28108
0
LINE
8
BLACK
6
CONTINUOUS
10
2.73431
20
1.28108
11
2.72807
21
1.26603
0
LINE
8
BLACK
6
CONTINUOUS
10
2.72807
20
1.26603
11
2.71903
21
1.25249
0
LINE
8
BLACK
6
CONTINUOUS
10
2.71903
20
1.25249
11
2.70751
21
1.24098
0
LINE
8
BLACK
6
CONTINUOUS
10
2.70751
20
1.24098
11
2.69397
21
1.23193
0
LINE
8
BLACK
6
CONTINUOUS
10
2.69397
20
1.23193
11
2.67892
21
1.22569
0
LINE
8
BLACK
6
CONTINUOUS
10
2.67892
20
1.22569
11
2.66295
21
1.22252
0
LINE
8
BLACK
6
CONTINUOUS
10
2.66295
20
1.22252
11
2.64666
21
1.22252
0
LINE
8
BLACK
6
CONTINUOUS
10
2.64666
20
1.22252
11
2.63069
21
1.22569
0
LINE
8
BLACK
6
CONTINUOUS
10
2.63069
20
1.22569
11
2.61564
21
1.23193
0
LINE
8
BLACK
6
CONTINUOUS
10
2.61564
20
1.23193
11
2.6021
21
1.24098
0
LINE
8
BLACK
6
CONTINUOUS
10
2.6021
20
1.24098
11
2.59059
21
1.25249
0
LINE
8
BLACK
6
CONTINUOUS
10
2.59059
20
1.25249
11
2.58154
21
1.26603
0
LINE
8
BLACK
6
CONTINUOUS
10
2.58154
20
1.26603
11
2.57531
21
1.28108
0
LINE
8
BLACK
6
CONTINUOUS
10
2.57531
20
1.28108
11
2.57213
21
1.29705
0
LINE
8
BLACK
6
CONTINUOUS
10
2.57213
20
1.29705
11
2.57213
21
1.31334
0
LINE
8
BLACK
6
CONTINUOUS
10
2.57213
20
1.31334
11
2.57531
21
1.32931
0
LINE
8
BLACK
6
CONTINUOUS
10
2.57531
20
1.32931
11
2.58154
21
1.34436
0
LINE
8
BLACK
6
CONTINUOUS
10
2.58154
20
1.34436
11
2.59059
21
1.3579
0
LINE
8
BLACK
6
CONTINUOUS
10
2.59059
20
1.3579
11
2.6021
21
1.36941
0
LINE
8
BLACK
6
CONTINUOUS
10
2.6021
20
1.36941
11
2.61564
21
1.37846
0
LINE
8
BLACK
6
CONTINUOUS
10
2.61564
20
1.37846
11
2.63069
21
1.38469
0
LINE
8
BLACK
6
CONTINUOUS
10
2.63069
20
1.38469
11
2.64666
21
1.38787
0
LINE
8
BLACK
6
CONTINUOUS
10
2.64666
20
1.38787
11
2.66295
21
1.38787
0
LINE
8
BLACK
6
CONTINUOUS
10
2.66295
20
1.38787
11
2.67892
21
1.38469
0
LINE
8
BLACK
6
CONTINUOUS
10
1.18286
20
1.7784
11
1.19791
21
1.77216
0
LINE
8
BLACK
6
CONTINUOUS
10
1.19791
20
1.77216
11
1.21145
21
1.76312
0
LINE
8
BLACK
6
CONTINUOUS
10
1.21145
20
1.76312
11
1.22296
21
1.7516
0
LINE
8
BLACK
6
CONTINUOUS
10
1.22296
20
1.7516
11
1.23201
21
1.73806
0
LINE
8
BLACK
6
CONTINUOUS
10
1.23201
20
1.73806
11
1.23824
21
1.72301
0
LINE
8
BLACK
6
CONTINUOUS
10
1.23824
20
1.72301
11
1.24142
21
1.70704
0
LINE
8
BLACK
6
CONTINUOUS
10
1.24142
20
1.70704
11
1.24142
21
1.69075
0
LINE
8
BLACK
6
CONTINUOUS
10
1.24142
20
1.69075
11
1.23824
21
1.67478
0
LINE
8
BLACK
6
CONTINUOUS
10
1.23824
20
1.67478
11
1.23201
21
1.65973
0
LINE
8
BLACK
6
CONTINUOUS
10
1.23201
20
1.65973
11
1.22296
21
1.64619
0
LINE
8
BLACK
6
CONTINUOUS
10
1.22296
20
1.64619
11
1.21145
21
1.63468
0
LINE
8
BLACK
6
CONTINUOUS
10
1.21145
20
1.63468
11
1.19791
21
1.62563
0
LINE
8
BLACK
6
CONTINUOUS
10
1.19791
20
1.62563
11
1.18286
21
1.6194
0
LINE
8
BLACK
6
CONTINUOUS
10
1.18286
20
1.6194
11
1.16689
21
1.61622
0
LINE
8
BLACK
6
CONTINUOUS
10
1.16689
20
1.61622
11
1.1506
21
1.61622
0
LINE
8
BLACK
6
CONTINUOUS
10
1.1506
20
1.61622
11
1.13463
21
1.6194
0
LINE
8
BLACK
6
CONTINUOUS
10
1.13463
20
1.6194
11
1.11958
21
1.62563
0
LINE
8
BLACK
6
CONTINUOUS
10
1.11958
20
1.62563
11
1.10604
21
1.63468
0
LINE
8
BLACK
6
CONTINUOUS
10
1.10604
20
1.63468
11
1.09452
21
1.64619
0
LINE
8
BLACK
6
CONTINUOUS
10
1.09452
20
1.64619
11
1.08548
21
1.65973
0
LINE
8
BLACK
6
CONTINUOUS
10
1.08548
20
1.65973
11
1.07924
21
1.67478
0
LINE
8
BLACK
6
CONTINUOUS
10
1.07924
20
1.67478
11
1.07607
21
1.69075
0
LINE
8
BLACK
6
CONTINUOUS
10
1.07607
20
1.69075
11
1.07607
21
1.70704
0
LINE
8
BLACK
6
CONTINUOUS
10
1.07607
20
1.70704
11
1.07924
21
1.72301
0
LINE
8
BLACK
6
CONTINUOUS
10
1.07924
20
1.72301
11
1.08548
21
1.73806
0
LINE
8
BLACK
6
CONTINUOUS
10
1.08548
20
1.73806
11
1.09452
21
1.7516
0
LINE
8
BLACK
6
CONTINUOUS
10
1.09452
20
1.7516
11
1.10604
21
1.76312
0
LINE
8
BLACK
6
CONTINUOUS
10
1.10604
20
1.76312
11
1.11958
21
1.77216
0
LINE
8
BLACK
6
CONTINUOUS
10
1.11958
20
1.77216
11
1.13463
21
1.7784
0
LINE
8
BLACK
6
CONTINUOUS
10
1.13463
20
1.7784
11
1.1506
21
1.78157
0
LINE
8
BLACK
6
CONTINUOUS
10
1.1506
20
1.78157
11
1.16689
21
1.78157
0
LINE
8
BLACK
6
CONTINUOUS
10
1.16689
20
1.78157
11
1.18286
21
1.7784
  0
ENDSEC
  0
EOF
