0
SECTION
2
HEADER
9
$INSUNITS
70
4
9
$ACADVER
1
AC1014
9
$HANDSEED
5
FFFF
0
ENDSEC
0
SECTION
2
TABLES
0
TABLE
2
VPORT
5
8
100
AcDbSymbolTable
0
ENDTAB
0
TABLE
2
LTYPE
5
5
100
AcDbSymbolTable
0
LTYPE
5
14
100
AcDbSymbolTableRecord
100
AcDbLinetypeTableRecord
2
BYBLOCK
70
0
0
LTYPE
5
15
100
AcDbSymbolTableRecord
100
AcDbLinetypeTableRecord
2
BYLAYER
70
0
0
ENDTAB
0
TABLE
2
LAYER
5
2
100
AcDbSymbolTable
70
2
0
LAYER
5
50
100
AcDbSymbolTableRecord
100
AcDbLayerTableRecord
2
0
70
0
6
CONTINUOUS
0
ENDTAB
0
TABLE
2
STYLE
5
3
100
AcDbSymbolTable
70
1
0
STYLE
5
11
100
AcDbSymbolTableRecord
100
AcDbTextStyleTableRecord
2
STANDARD
70
0
0
ENDTAB
0
TABLE
2
VIEW
5
6
100
AcDbSymbolTable
70
0
0
ENDTAB
0
TABLE
2
UCS
5
7
100
AcDbSymbolTable
70
0
0
ENDTAB
0
TABLE
2
APPID
5
9
100
AcDbSymbolTable
70
2
0
APPID
5
12
100
AcDbSymbolTableRecord
100
AcDbRegAppTableRecord
2
ACAD
70
0
0
ENDTAB
0
TABLE
2
DIMSTYLE
5
A
100
AcDbSymbolTable
70
1
0
ENDTAB
0
TABLE
2
BLOCK_RECORD
5
1
100
AcDbSymbolTable
70
1
0
BLOCK_RECORD
5
1F
100
AcDbSymbolTableRecord
100
AcDbBlockTableRecord
2
*MODEL_SPACE
0
BLOCK_RECORD
5
1B
100
AcDbSymbolTableRecord
100
AcDbBlockTableRecord
2
*PAPER_SPACE
0
ENDTAB
0
ENDSEC
0
SECTION
2
BLOCKS
0
BLOCK
5
20
100
AcDbEntity
100
AcDbBlockBegin
2
*MODEL_SPACE
0
ENDBLK
5
21
100
AcDbEntity
100
AcDbBlockEnd
0
BLOCK
5
1C
100
AcDbEntity
100
AcDbBlockBegin
2
*PAPER_SPACE
0
ENDBLK
5
1D
100
AcDbEntity
100
AcDbBlockEnd
0
ENDSEC
0
SECTION
2
ENTITIES
0
CIRCLE
5
100
100
AcDbEntity
8
0
100
AcDbCircle
10
29.449999341741204
20
43.149999035522342
30
0
40
5
210
0
220
0
230
1
0
CIRCLE
5
101
100
AcDbEntity
8
0
100
AcDbCircle
10
67.432005110500356
20
33.150495603904425
30
0
40
3.0000000000000004
210
0
220
0
230
1
0
CIRCLE
5
102
100
AcDbEntity
8
0
100
AcDbCircle
10
79.649174741442977
20
-28.141921011125731
30
0
40
5
210
0
220
0
230
1
0
CIRCLE
5
103
100
AcDbEntity
8
0
100
AcDbCircle
10
40.414436279197226
20
-16.131885203694669
30
0
40
3.0000000000000004
210
0
220
0
230
1
0
CIRCLE
5
104
100
AcDbEntity
8
0
100
AcDbCircle
10
8.633456776392487
20
10.290826393126489
30
0
40
3.0000000000000004
210
0
220
0
230
1
0
LINE
5
105
100
AcDbEntity
8
0
100
AcDbLine
10
-9.4003342757349344
20
-11.296399469472881
30
0
11
77.367384000000001
21
-38.325806000000007
31
0
0
LINE
5
106
100
AcDbEntity
8
0
100
AcDbLine
10
-9.4003342757349344
20
-11.296399469472881
30
0
11
-13.082545508793043
21
28.384217292832684
31
0
0
LINE
5
107
100
AcDbEntity
8
0
100
AcDbLine
10
-13.082545508793043
20
28.384217292832684
30
0
11
9.5377626677368834
21
30.325220731692227
31
0
0
LINE
5
108
100
AcDbEntity
8
0
100
AcDbLine
10
9.5377626677368834
20
30.325220731692227
30
0
11
9.537762668579294
21
57.021773746238907
31
0
0
LINE
5
109
100
AcDbEntity
8
0
100
AcDbLine
10
9.537762668579294
20
57.021773746238907
30
0
11
22.649292443604828
21
57.0217737455242
31
0
0
LINE
5
110
100
AcDbEntity
8
0
100
AcDbLine
10
22.649292443604828
20
57.0217737455242
30
0
11
32.985533247673942
21
46.685532941455079
31
0
0
CIRCLE
5
111
100
AcDbEntity
8
0
100
AcDbCircle
10
14.537762670220841
20
52.021773745780173
30
0
40
5.0000000000000009
210
0
220
0
230
1
0
CIRCLE
5
112
100
AcDbEntity
8
0
100
AcDbCircle
10
79.821302824927614
20
42.051975999999996
30
0
40
5.0000000000000036
210
0
220
0
230
1
0
LINE
5
113
100
AcDbEntity
8
0
100
AcDbLine
10
86.836194042588886
20
9.5250000000000021
30
0
11
86.836194042588886
21
47.051975999999996
31
0
0
LINE
5
114
100
AcDbEntity
8
0
100
AcDbLine
10
86.836194042588886
20
47.051975999999996
30
0
11
56.21372617927122
21
47.051975999999996
31
0
0
CIRCLE
5
115
100
AcDbEntity
8
0
100
AcDbCircle
10
72.32121302453578
20
-31.516863329922828
30
0
40
5.0000000000000044
210
0
220
0
230
1
0
LINE
5
116
100
AcDbEntity
8
0
100
AcDbLine
10
74.408073722168865
20
-49.05628999999999
30
0
11
86.8361940425889
21
-30.364683999999997
31
0
0
LINE
5
117
100
AcDbEntity
8
0
100
AcDbLine
10
63.549089914530306
20
-38.325806
30
0
11
74.408073722168865
21
-49.05628999999999
31
0
0
LINE
5
118
100
AcDbEntity
8
0
100
AcDbLine
10
79.821302824927614
20
47.051975999999996
30
0
11
32.619090189129018
21
47.05197600000001
31
0
0
CIRCLE
5
119
100
AcDbEntity
8
0
100
AcDbCircle
10
29.449999341741204
20
43.149999035522342
30
0
40
3.0000000000000004
210
0
220
0
230
1
0
CIRCLE
5
120
100
AcDbEntity
8
0
100
AcDbCircle
10
79.649174741442977
20
-28.141921011125731
30
0
40
3.0000000000000004
210
0
220
0
230
1
0
LINE
5
121
100
AcDbEntity
8
0
100
AcDbLine
10
84.649036927622419
20
40.750829031484244
30
0
11
84.649036927622419
21
-16.028942357014287
31
0
0
CIRCLE
5
122
100
AcDbEntity
8
0
100
AcDbCircle
10
29.449999341741204
20
43.149999035522342
30
0
40
1.1000000000000001
210
0
220
0
230
1
0
CIRCLE
5
123
100
AcDbEntity
8
0
100
AcDbCircle
10
67.432005110500356
20
33.150495603904425
30
0
40
1.1000000000000001
210
0
220
0
230
1
0
CIRCLE
5
124
100
AcDbEntity
8
0
100
AcDbCircle
10
79.649174741442977
20
-28.141921011125731
30
0
40
1.1000000000000001
210
0
220
0
230
1
0
CIRCLE
5
125
100
AcDbEntity
8
0
100
AcDbCircle
10
40.414436279197226
20
-16.131885203694669
30
0
40
1.1000000000000001
210
0
220
0
230
1
0
CIRCLE
5
126
100
AcDbEntity
8
0
100
AcDbCircle
10
8.633456776392487
20
10.290826393126489
30
0
40
1.1000000000000001
210
0
220
0
230
1
0
LINE
5
127
100
AcDbEntity
8
0
100
AcDbLine
10
90.587575999999999
20
-49.05628999999999
30
0
11
105.71810200000002
21
-30.364683999999997
31
0
0
LINE
5
128
100
AcDbEntity
8
0
100
AcDbLine
10
77.367384000000001
20
-38.325806000000007
30
0
11
90.587575999999999
21
-49.05628999999999
31
0
0
CIRCLE
5
129
100
AcDbEntity
8
0
100
AcDbCircle
10
79.649036927622419
20
-20.108772262090486
30
0
40
4.9999999999999964
210
0
220
0
230
1
0
LINE
5
130
100
AcDbEntity
8
0
100
AcDbLine
10
105.71810200000002
20
-30.364683999999997
30
0
11
105.71810200000002
21
-0.52500021999999813
31
0
0
LINE
5
131
100
AcDbEntity
8
0
100
AcDbLine
10
84.649036927622419
20
-16.028942357014287
30
0
11
84.649036927622419
21
-28.104797983061566
31
0
0
LINE
5
132
100
AcDbEntity
8
0
100
AcDbLine
10
74.412830444963959
20
-36.058353896527748
30
0
11
81.740789495937292
21
-32.683412805545458
31
0
0
ENDSEC
0
SECTION
2
OBJECTS
0
DICTIONARY
5
C
100
AcDbDictionary
3
ACAD_GROUP
350
D
3
ACAD_MLINESTYLE
350
17
0
DICTIONARY
5
D
100
AcDbDictionary
0
DICTIONARY
5
1A
330
C
100
AcDbDictionary
0
DICTIONARY
5
17
100
AcDbDictionary
0
ENDSEC
0
EOF
