0
SECTION
2
HEADER
9
$INSUNITS
70
4
9
$ACADVER
1
AC1014
9
$HANDSEED
5
FFFF
0
ENDSEC
0
SECTION
2
TABLES
0
TABLE
2
VPORT
5
8
100
AcDbSymbolTable
0
ENDTAB
0
TABLE
2
LTYPE
5
5
100
AcDbSymbolTable
0
LTYPE
5
14
100
AcDbSymbolTableRecord
100
AcDbLinetypeTableRecord
2
BYBLOCK
70
0
0
LTYPE
5
15
100
AcDbSymbolTableRecord
100
AcDbLinetypeTableRecord
2
BYLAYER
70
0
0
ENDTAB
0
TABLE
2
LAYER
5
2
100
AcDbSymbolTable
70
2
0
LAYER
5
50
100
AcDbSymbolTableRecord
100
AcDbLayerTableRecord
2
0
70
0
6
CONTINUOUS
0
ENDTAB
0
TABLE
2
STYLE
5
3
100
AcDbSymbolTable
70
1
0
STYLE
5
11
100
AcDbSymbolTableRecord
100
AcDbTextStyleTableRecord
2
STANDARD
70
0
0
ENDTAB
0
TABLE
2
VIEW
5
6
100
AcDbSymbolTable
70
0
0
ENDTAB
0
TABLE
2
UCS
5
7
100
AcDbSymbolTable
70
0
0
ENDTAB
0
TABLE
2
APPID
5
9
100
AcDbSymbolTable
70
2
0
APPID
5
12
100
AcDbSymbolTableRecord
100
AcDbRegAppTableRecord
2
ACAD
70
0
0
ENDTAB
0
TABLE
2
DIMSTYLE
5
A
100
AcDbSymbolTable
70
1
0
ENDTAB
0
TABLE
2
BLOCK_RECORD
5
1
100
AcDbSymbolTable
70
1
0
BLOCK_RECORD
5
1F
100
AcDbSymbolTableRecord
100
AcDbBlockTableRecord
2
*MODEL_SPACE
0
BLOCK_RECORD
5
1B
100
AcDbSymbolTableRecord
100
AcDbBlockTableRecord
2
*PAPER_SPACE
0
ENDTAB
0
ENDSEC
0
SECTION
2
BLOCKS
0
BLOCK
5
20
100
AcDbEntity
100
AcDbBlockBegin
2
*MODEL_SPACE
0
ENDBLK
5
21
100
AcDbEntity
100
AcDbBlockEnd
0
BLOCK
5
1C
100
AcDbEntity
100
AcDbBlockBegin
2
*PAPER_SPACE
0
ENDBLK
5
1D
100
AcDbEntity
100
AcDbBlockEnd
0
ENDSEC
0
SECTION
2
ENTITIES
0
LINE
5
100
100
AcDbEntity
8
0
100
AcDbLine
10
105.71810200000002
20
9.5250000000000021
30
0
11
105.71810200000002
21
47.051975999999996
31
0
0
LINE
5
101
100
AcDbEntity
8
0
100
AcDbLine
10
105.71810200000002
20
47.051975999999996
30
0
11
68.436998000000003
21
47.051975999999996
31
0
0
LINE
5
102
100
AcDbEntity
8
0
100
AcDbLine
10
68.436998000000003
20
47.051975999999996
30
0
11
68.432171999999994
21
47.051468000000007
31
0
0
LINE
5
103
100
AcDbEntity
8
0
100
AcDbLine
10
68.432171999999994
20
47.051468000000007
30
0
11
68.427091999999988
21
47.051975999999996
31
0
0
LINE
5
104
100
AcDbEntity
8
0
100
AcDbLine
10
68.427091999999988
20
47.051975999999996
30
0
11
68.412360000000007
21
47.0535
31
0
0
LINE
5
105
100
AcDbEntity
8
0
100
AcDbLine
10
68.412360000000007
20
47.0535
30
0
11
68.393563999999998
21
47.059088000000003
31
0
0
LINE
5
106
100
AcDbEntity
8
0
100
AcDbLine
10
68.393563999999998
20
47.059088000000003
30
0
11
68.376291999999992
21
47.068486000000007
31
0
0
LINE
5
107
100
AcDbEntity
8
0
100
AcDbLine
10
68.376291999999992
20
47.068486000000007
30
0
11
68.361052000000001
21
47.080932000000004
31
0
0
LINE
5
108
100
AcDbEntity
8
0
100
AcDbLine
10
68.361052000000001
20
47.080932000000004
30
0
11
68.348606000000004
21
47.096171999999996
31
0
0
LINE
5
109
100
AcDbEntity
8
0
100
AcDbLine
10
68.348606000000004
20
47.096171999999996
30
0
11
68.339207999999999
21
47.113444000000001
31
0
0
LINE
5
110
100
AcDbEntity
8
0
100
AcDbLine
10
68.339207999999999
20
47.113444000000001
30
0
11
68.333619999999996
21
47.132239999999996
31
0
0
LINE
5
111
100
AcDbEntity
8
0
100
AcDbLine
10
68.333619999999996
20
47.132239999999996
30
0
11
68.331588000000011
21
47.152051999999998
31
0
0
LINE
5
112
100
AcDbEntity
8
0
100
AcDbLine
10
68.331588000000011
20
47.152051999999998
30
0
11
68.332096000000007
21
47.156878000000006
31
0
0
LINE
5
113
100
AcDbEntity
8
0
100
AcDbLine
10
68.332096000000007
20
47.156878000000006
30
0
11
68.332096000000007
21
53.051963999999998
31
0
0
LINE
5
114
100
AcDbEntity
8
0
100
AcDbLine
10
68.332096000000007
20
53.051963999999998
30
0
11
49.437035999999999
21
53.051963999999998
31
0
0
LINE
5
115
100
AcDbEntity
8
0
100
AcDbLine
10
49.437035999999999
20
53.051963999999998
30
0
11
49.431956000000014
21
53.051456000000016
31
0
0
LINE
5
116
100
AcDbEntity
8
0
100
AcDbLine
10
49.431956000000014
20
53.051456000000016
30
0
11
49.427130000000005
21
53.051963999999998
31
0
0
LINE
5
117
100
AcDbEntity
8
0
100
AcDbLine
10
49.427130000000005
20
53.051963999999998
30
0
11
49.412397999999996
21
53.053488000000002
31
0
0
LINE
5
118
100
AcDbEntity
8
0
100
AcDbLine
10
49.412397999999996
20
53.053488000000002
30
0
11
49.393601999999994
21
53.059076000000005
31
0
0
LINE
5
119
100
AcDbEntity
8
0
100
AcDbLine
10
49.393601999999994
20
53.059076000000005
30
0
11
49.376329999999996
21
53.068473999999988
31
0
0
LINE
5
120
100
AcDbEntity
8
0
100
AcDbLine
10
49.376329999999996
20
53.068473999999988
30
0
11
49.361090000000004
21
53.080919999999992
31
0
0
LINE
5
121
100
AcDbEntity
8
0
100
AcDbLine
10
49.361090000000004
20
53.080919999999992
30
0
11
49.348643999999993
21
53.096159999999998
31
0
0
LINE
5
122
100
AcDbEntity
8
0
100
AcDbLine
10
49.348643999999993
20
53.096159999999998
30
0
11
49.339246000000003
21
53.113431999999996
31
0
0
LINE
5
123
100
AcDbEntity
8
0
100
AcDbLine
10
49.339246000000003
20
53.113431999999996
30
0
11
49.333403999999994
21
53.132228000000012
31
0
0
LINE
5
124
100
AcDbEntity
8
0
100
AcDbLine
10
49.333403999999994
20
53.132228000000012
30
0
11
49.331626
21
53.152040000000007
31
0
0
LINE
5
125
100
AcDbEntity
8
0
100
AcDbLine
10
49.331626
20
53.152040000000007
30
0
11
49.332133999999989
21
53.156865999999994
31
0
0
LINE
5
126
100
AcDbEntity
8
0
100
AcDbLine
10
49.332133999999989
20
53.156865999999994
30
0
11
49.332133999999989
21
63.051943999999992
31
0
0
LINE
5
127
100
AcDbEntity
8
0
100
AcDbLine
10
49.332133999999989
20
63.051943999999992
30
0
11
28.532074000000001
21
63.051943999999992
31
0
0
LINE
5
128
100
AcDbEntity
8
0
100
AcDbLine
10
28.532074000000001
20
63.051943999999992
30
0
11
28.532074000000001
21
57.156857999999993
31
0
0
LINE
5
129
100
AcDbEntity
8
0
100
AcDbLine
10
28.532074000000001
20
57.156857999999993
30
0
11
28.532581999999998
21
57.152032000000005
31
0
0
LINE
5
130
100
AcDbEntity
8
0
100
AcDbLine
10
28.532581999999998
20
57.152032000000005
30
0
11
28.530549999999998
21
57.132220000000004
31
0
0
LINE
5
131
100
AcDbEntity
8
0
100
AcDbLine
10
28.530549999999998
20
57.132220000000004
30
0
11
28.524962000000002
21
57.113423999999995
31
0
0
LINE
5
132
100
AcDbEntity
8
0
100
AcDbLine
10
28.524962000000002
20
57.113423999999995
30
0
11
28.515564000000001
21
57.096151999999989
31
0
0
LINE
5
133
100
AcDbEntity
8
0
100
AcDbLine
10
28.515564000000001
20
57.096151999999989
30
0
11
28.503118000000001
21
57.080911999999998
31
0
0
LINE
5
134
100
AcDbEntity
8
0
100
AcDbLine
10
28.503118000000001
20
57.080911999999998
30
0
11
28.487878000000002
21
57.068466000000001
31
0
0
LINE
5
135
100
AcDbEntity
8
0
100
AcDbLine
10
28.487878000000002
20
57.068466000000001
30
0
11
28.470605999999993
21
57.059067999999996
31
0
0
LINE
5
136
100
AcDbEntity
8
0
100
AcDbLine
10
28.470605999999993
20
57.059067999999996
30
0
11
28.451556
21
57.05348
31
0
0
LINE
5
137
100
AcDbEntity
8
0
100
AcDbLine
10
28.451556
20
57.05348
30
0
11
28.437078000000007
21
57.051955999999997
31
0
0
LINE
5
138
100
AcDbEntity
8
0
100
AcDbLine
10
28.437078000000007
20
57.051955999999997
30
0
11
28.431998000000004
21
57.051447999999993
31
0
0
LINE
5
139
100
AcDbEntity
8
0
100
AcDbLine
10
28.431998000000004
20
57.051447999999993
30
0
11
28.427171999999995
21
57.051956000000004
31
0
0
LINE
5
140
100
AcDbEntity
8
0
100
AcDbLine
10
28.427171999999995
20
57.051956000000004
30
0
11
9.5320865999999995
21
57.051955999999997
31
0
0
LINE
5
141
100
AcDbEntity
8
0
100
AcDbLine
10
9.5320865999999995
20
57.051955999999997
30
0
11
9.5320865999999995
21
30.409134000000005
31
0
0
LINE
5
142
100
AcDbEntity
8
0
100
AcDbLine
10
9.5320865999999995
20
30.409134000000005
30
0
11
9.5321881999999984
21
30.408626000000002
31
0
0
LINE
5
143
100
AcDbEntity
8
0
100
AcDbLine
10
9.5321881999999984
20
30.408626000000002
30
0
11
9.5320865999999995
21
30.399481999999995
31
0
0
LINE
5
144
100
AcDbEntity
8
0
100
AcDbLine
10
9.5320865999999995
20
30.399481999999995
30
0
11
9.5320865999999995
21
30.395164000000001
31
0
0
LINE
5
145
100
AcDbEntity
8
0
100
AcDbLine
10
9.5320865999999995
20
30.395164000000001
30
0
11
9.532010399999999
21
30.394401999999996
31
0
0
LINE
5
146
100
AcDbEntity
8
0
100
AcDbLine
10
9.532010399999999
20
30.394401999999996
30
0
11
9.5319342000000002
21
30.388813999999996
31
0
0
LINE
5
147
100
AcDbEntity
8
0
100
AcDbLine
10
9.5319342000000002
20
30.388813999999996
30
0
11
9.5310451999999994
21
30.38475
31
0
0
LINE
5
148
100
AcDbEntity
8
0
100
AcDbLine
10
9.5310451999999994
20
30.38475
30
0
11
9.5306388000000002
21
30.380432000000003
31
0
0
LINE
5
149
100
AcDbEntity
8
0
100
AcDbLine
10
9.5306388000000002
20
30.380432000000003
30
0
11
9.5290131999999996
21
30.375098000000001
31
0
0
LINE
5
150
100
AcDbEntity
8
0
100
AcDbLine
10
9.5290131999999996
20
30.375098000000001
30
0
11
9.5278447999999987
21
30.369510000000002
31
0
0
LINE
5
151
100
AcDbEntity
8
0
100
AcDbLine
10
9.5278447999999987
20
30.369510000000002
30
0
11
9.5261683999999995
21
30.365699999999997
31
0
0
LINE
5
152
100
AcDbEntity
8
0
100
AcDbLine
10
9.5261683999999995
20
30.365699999999997
30
0
11
9.5248983999999997
21
30.361636000000001
31
0
0
LINE
5
153
100
AcDbEntity
8
0
100
AcDbLine
10
9.5248983999999997
20
30.361636000000001
30
0
11
9.5222821999999994
21
30.356555999999998
31
0
0
LINE
5
154
100
AcDbEntity
8
0
100
AcDbLine
10
9.5222821999999994
20
30.356555999999998
30
0
11
9.5200977999999985
21
30.351475999999998
31
0
0
LINE
5
155
100
AcDbEntity
8
0
100
AcDbLine
10
9.5200977999999985
20
30.351475999999998
30
0
11
9.5176593999999994
21
30.347920000000002
31
0
0
LINE
5
156
100
AcDbEntity
8
0
100
AcDbLine
10
9.5176593999999994
20
30.347920000000002
30
0
11
9.5156273999999978
21
30.344110000000001
31
0
0
LINE
5
157
100
AcDbEntity
8
0
100
AcDbLine
10
9.5156273999999978
20
30.344110000000001
30
0
11
9.5120968000000001
21
30.339792000000003
31
0
0
LINE
5
158
100
AcDbEntity
8
0
100
AcDbLine
10
9.5120968000000001
20
30.339792000000003
30
0
11
9.5089471999999997
21
30.335219999999996
31
0
0
LINE
5
159
100
AcDbEntity
8
0
100
AcDbLine
10
9.5089471999999997
20
30.335219999999996
30
0
11
9.5058483999999996
21
30.332172
31
0
0
LINE
5
160
100
AcDbEntity
8
0
100
AcDbLine
10
9.5058483999999996
20
30.332172
30
0
11
9.5031305999999987
21
30.328870000000002
31
0
0
LINE
5
161
100
AcDbEntity
8
0
100
AcDbLine
10
9.5031305999999987
20
30.328870000000002
30
0
11
9.4988379999999992
21
30.325314000000002
31
0
0
LINE
5
162
100
AcDbEntity
8
0
100
AcDbLine
10
9.4988379999999992
20
30.325314000000002
30
0
11
9.4948501999999984
21
30.321503999999997
31
0
0
LINE
5
163
100
AcDbEntity
8
0
100
AcDbLine
10
9.4948501999999984
20
30.321503999999997
30
0
11
9.4912179999999999
21
30.319217999999999
31
0
0
LINE
5
164
100
AcDbEntity
8
0
100
AcDbLine
10
9.4912179999999999
20
30.319217999999999
30
0
11
9.4878906000000001
21
30.316423999999998
31
0
0
LINE
5
165
100
AcDbEntity
8
0
100
AcDbLine
10
9.4878906000000001
20
30.316423999999998
30
0
11
9.4829884
21
30.313884000000002
31
0
0
LINE
5
166
100
AcDbEntity
8
0
100
AcDbLine
10
9.4829884
20
30.313884000000002
30
0
11
9.4783147999999997
21
30.310836000000002
31
0
0
LINE
5
167
100
AcDbEntity
8
0
100
AcDbLine
10
9.4783147999999997
20
30.310836000000002
30
0
11
9.4743270000000006
21
30.309311999999995
31
0
0
LINE
5
168
100
AcDbEntity
8
0
100
AcDbLine
10
9.4743270000000006
20
30.309311999999995
30
0
11
9.4705169999999992
21
30.307279999999999
31
0
0
LINE
5
169
100
AcDbEntity
8
0
100
AcDbLine
10
9.4705169999999992
20
30.307279999999999
30
0
11
9.4652083999999999
21
30.305502000000001
31
0
0
LINE
5
170
100
AcDbEntity
8
0
100
AcDbLine
10
9.4652083999999999
20
30.305502000000001
30
0
11
9.4600267999999978
21
30.303469999999997
31
0
0
LINE
5
171
100
AcDbEntity
8
0
100
AcDbLine
10
9.4600267999999978
20
30.303469999999997
30
0
11
9.4557850000000006
21
30.302708000000003
31
0
0
LINE
5
172
100
AcDbEntity
8
0
100
AcDbLine
10
9.4557850000000006
20
30.302708000000003
30
0
11
9.4516701999999988
21
30.301437999999997
31
0
0
LINE
5
173
100
AcDbEntity
8
0
100
AcDbLine
10
9.4516701999999988
20
30.301437999999997
30
0
11
9.4461329999999997
21
30.300930000000001
31
0
0
LINE
5
174
100
AcDbEntity
8
0
100
AcDbLine
10
9.4461329999999997
20
30.300930000000001
30
0
11
9.4454979999999988
21
30.300675999999996
31
0
0
LINE
5
175
100
AcDbEntity
8
0
100
AcDbLine
10
9.4454979999999988
20
30.300675999999996
30
0
11
9.4411545999999991
21
30.300421999999998
31
0
0
LINE
5
176
100
AcDbEntity
8
0
100
AcDbLine
10
9.4411545999999991
20
30.300421999999998
30
0
11
9.4320867999999987
21
30.299406000000001
31
0
0
LINE
5
177
100
AcDbEntity
8
0
100
AcDbLine
10
9.4320867999999987
20
30.299406000000001
30
0
11
9.4314517999999996
21
30.299660000000003
31
0
0
LINE
5
178
100
AcDbEntity
8
0
100
AcDbLine
10
9.4314517999999996
20
30.299660000000003
30
0
11
-12.922783399999997
21
28.381451999999996
31
0
0
LINE
5
179
100
AcDbEntity
8
0
100
AcDbLine
10
-12.922783399999997
20
28.381451999999996
30
0
11
-9.4511368000000004
21
-11.299621800000001
31
0
0
LINE
5
180
100
AcDbEntity
8
0
100
AcDbLine
10
-9.4511368000000004
20
-11.299621800000001
30
0
11
77.324457999999993
21
-38.302946000000006
31
0
0
LINE
5
181
100
AcDbEntity
8
0
100
AcDbLine
10
77.324457999999993
20
-38.302946000000006
30
0
11
77.328521999999992
21
-38.303708
31
0
0
LINE
5
182
100
AcDbEntity
8
0
100
AcDbLine
10
77.328521999999992
20
-38.303708
30
0
11
77.333856000000011
21
-38.30574
31
0
0
LINE
5
183
100
AcDbEntity
8
0
100
AcDbLine
10
77.333856000000011
20
-38.30574
30
0
11
77.334363999999994
21
-38.305994000000005
31
0
0
LINE
5
184
100
AcDbEntity
8
0
100
AcDbLine
10
77.334363999999994
20
-38.305994000000005
30
0
11
77.338428000000008
21
-38.307772
31
0
0
LINE
5
185
100
AcDbEntity
8
0
100
AcDbLine
10
77.338428000000008
20
-38.307772
30
0
11
77.346810000000005
21
-38.311074000000005
31
0
0
LINE
5
186
100
AcDbEntity
8
0
100
AcDbLine
10
77.346810000000005
20
-38.311074000000005
30
0
11
77.347318000000001
21
-38.311581999999994
31
0
0
LINE
5
187
100
AcDbEntity
8
0
100
AcDbLine
10
77.347318000000001
20
-38.311581999999994
30
0
11
77.348079999999996
21
-38.311836
31
0
0
LINE
5
188
100
AcDbEntity
8
0
100
AcDbLine
10
77.348079999999996
20
-38.311836
30
0
11
77.355700000000013
21
-38.316915999999999
31
0
0
LINE
5
189
100
AcDbEntity
8
0
100
AcDbLine
10
77.355700000000013
20
-38.316915999999999
30
0
11
77.359256000000016
21
-38.319201999999997
31
0
0
LINE
5
190
100
AcDbEntity
8
0
100
AcDbLine
10
77.359256000000016
20
-38.319201999999997
30
0
11
77.359763999999998
21
-38.319710000000008
31
0
0
LINE
5
191
100
AcDbEntity
8
0
100
AcDbLine
10
77.359763999999998
20
-38.319710000000008
30
0
11
77.364335999999994
21
-38.322758000000007
31
0
0
LINE
5
192
100
AcDbEntity
8
0
100
AcDbLine
10
77.364335999999994
20
-38.322758000000007
30
0
11
77.367384000000001
21
-38.325806000000007
31
0
0
LINE
5
193
100
AcDbEntity
8
0
100
AcDbLine
10
77.367384000000001
20
-38.325806000000007
30
0
11
90.587575999999999
21
-49.05628999999999
31
0
0
LINE
5
194
100
AcDbEntity
8
0
100
AcDbLine
10
90.587575999999999
20
-49.05628999999999
30
0
11
105.71810200000002
21
-30.364683999999997
31
0
0
LINE
5
195
100
AcDbEntity
8
0
100
AcDbLine
10
105.71810200000002
20
-30.364683999999997
30
0
11
105.71810200000002
21
-0.94802400000000731
31
0
0
LINE
5
196
100
AcDbEntity
8
0
100
AcDbLine
10
105.71810200000002
20
9.5250000000000021
30
0
11
105.71810200000002
21
-0.94802400000000731
31
0
0
LINE
5
197
100
AcDbEntity
8
0
100
AcDbLine
10
69.53209600000001
20
48.251975999999999
30
0
11
69.53209600000001
21
54.251964000000001
31
0
0
LINE
5
198
100
AcDbEntity
8
0
100
AcDbLine
10
69.53209600000001
20
54.251964000000001
30
0
11
50.532133999999985
21
54.251964000000001
31
0
0
LINE
5
199
100
AcDbEntity
8
0
100
AcDbLine
10
50.532133999999985
20
54.251964000000001
30
0
11
50.532133999999985
21
64.251943999999995
31
0
0
LINE
5
200
100
AcDbEntity
8
0
100
AcDbLine
10
50.532133999999985
20
64.251943999999995
30
0
11
27.332073999999999
21
64.251943999999995
31
0
0
LINE
5
201
100
AcDbEntity
8
0
100
AcDbLine
10
27.332073999999999
20
64.251943999999995
30
0
11
27.332073999999999
21
58.251956000000007
31
0
0
LINE
5
202
100
AcDbEntity
8
0
100
AcDbLine
10
27.332073999999999
20
58.251956000000007
30
0
11
8.3320866000000002
21
58.251956
31
0
0
LINE
5
203
100
AcDbEntity
8
0
100
AcDbLine
10
8.3320866000000002
20
58.251956
30
0
11
8.3320866000000002
21
31.40973378065436
31
0
0
LINE
5
204
100
AcDbEntity
8
0
100
AcDbLine
10
8.3320866000000002
20
31.40973378065436
30
0
11
-14.222978448119825
21
29.474292651546797
31
0
0
LINE
5
205
100
AcDbEntity
8
0
100
AcDbLine
10
-14.222978448119825
20
29.474292651546797
30
0
11
-10.576403987488884
21
-12.206214312926949
31
0
0
LINE
5
206
100
AcDbEntity
8
0
100
AcDbLine
10
-10.576403987488884
20
-12.206214312926949
30
0
11
76.77140162779888
21
-39.387602335958931
31
0
0
LINE
5
207
100
AcDbEntity
8
0
100
AcDbLine
10
76.77140162779888
20
-39.387602335958931
30
0
11
90.764275022432642
21
-50.745251610276824
31
0
0
LINE
5
208
100
AcDbEntity
8
0
100
AcDbLine
10
90.764275022432642
20
-50.745251610276824
30
0
11
106.918102
21
-30.789503260427011
31
0
0
LINE
5
209
100
AcDbEntity
8
0
100
AcDbLine
10
106.918102
20
-30.789503260427011
30
0
11
106.918102
21
-0.94802400000000731
31
0
0
LINE
5
210
100
AcDbEntity
8
0
100
AcDbLine
10
106.918102
20
9.5250000000000021
30
0
11
106.918102
21
-0.94802400000000731
31
0
0
LINE
5
211
100
AcDbEntity
8
0
100
AcDbLine
10
106.918102
20
9.5250000000000021
30
0
11
106.918102
21
48.251975999999999
31
0
0
LINE
5
212
100
AcDbEntity
8
0
100
AcDbLine
10
106.918102
20
48.251975999999999
30
0
11
69.53209600000001
21
48.251975999999999
31
0
0
LWPOLYLINE
5
213
100
AcDbEntity
8
0
100
AcDbPolyline
90
93
70
1
43
0.0
10
67.622227067458155
20
45.201889891769895
10
68.021120334042962
20
45.08330000170411
10
68.224688540482092
20
45.062241221727604
10
68.437407638160522
20
45.040969311960026
10
68.541971174541544
20
45.051975999999996
10
103.71810200000002
20
45.051975999999996
10
103.71810200000002
20
9.5250000000000021
10
103.71810200000002
20
-0.94802400000000731
10
103.71810200000002
20
-29.656651899288306
10
90.293077629278926
20
-46.241353982871942
10
78.708290278186126
20
-36.838285153440161
10
78.63851482330935
20
-36.768509698563591
10
78.633942823339964
20
-36.765461698583984
10
78.621525158480253
20
-36.75304403372342
10
78.609434758446838
20
-36.745271633701975
10
78.466885185633586
20
-36.602722060889967
10
78.278846739592566
20
-36.528646309419187
10
78.234627230598107
20
-36.49916663675625
10
78.034826866142012
20
-36.432566515268945
10
77.873138872300842
20
-36.370971089043969
10
77.807510683019729
20
-36.358665803553755
10
-7.5756914875185206
20
-9.7886342784550884
10
-10.755791653133613
20
26.560050914088666
10
9.1294484229085011
20
28.266395427981262
10
9.1556441288387731
20
28.255917145609061
10
9.6110024536287106
20
28.306937686201454
10
9.8866106132241303
20
28.323055122435218
10
10.000207577693054
20
28.368493908223023
10
10.007161712707743
20
28.36974315403404
10
10.148320613874127
20
28.425099585863997
10
10.264199648095145
20
28.463910745650924
10
10.305136975326008
20
28.485743986840664
10
10.391876969514426
20
28.518893029205813
10
10.491817280405606
20
28.584071492830464
10
10.604503304651676
20
28.642458033890602
10
10.672442629363774
20
28.699506321816813
10
10.730734856242135
20
28.736193737334645
10
10.829248505436444
20
28.830315058221018
10
10.926018996839833
20
28.910479962342123
10
10.983257995093238
20
28.980022670500464
10
11.047601328917896
20
29.043311195573786
10
11.112465029188197
20
29.1374681798372
10
11.18806204866647
20
29.229924966249502
10
11.230021330430606
20
29.308598619557316
10
11.280170434447145
20
29.381732729581302
10
11.332164022887168
20
29.502648051534869
10
11.382220674979537
20
29.599845434238546
10
11.401799690947698
20
29.662498285336621
10
11.442704790094421
20
29.755464419761072
10
11.468306963593582
20
29.877909597365722
10
11.502848376043033
20
29.991248606965414
10
11.510844929859678
20
30.076211991267389
10
11.528988409193488
20
30.159153611078974
10
11.530650681382093
20
30.281053571578653
10
11.532086600000026
20
30.295412757757898
10
11.532086600000005
20
30.388371231803532
10
11.53438977679345
20
30.595657143214279
10
11.5320866
20
30.607173027181762
10
11.5320866
20
55.051955999999997
10
28.322198825454823
20
55.051956000000004
10
28.426762361837632
20
55.040949311959452
10
28.641267888263421
20
55.062399864602163
10
28.840875120627871
20
55.083411152219512
10
29.238704367191009
20
55.200107731211276
10
29.608072486971857
20
55.401087443445121
10
29.924514727108964
20
55.659515272890388
10
30.18294255655498
20
55.975957513028121
10
30.382160108230284
20
56.342087067458557
10
30.501001492677076
20
56.741826269688886
10
30.543349218621071
20
57.154716597642754
10
30.532074000000001
20
57.261831174542834
10
30.532074000000001
20
61.051943999999992
10
47.332133999999982
20
61.051943999999992
10
47.332133999999982
20
53.261839174540086
10
47.322202072381423
20
53.167485862161286
10
47.360416028651542
20
52.741673206578731
10
47.488021448135754
20
52.331116639542579
10
47.681265443444829
20
51.975965513028484
10
47.939693272890509
20
51.659523272890915
10
48.256135513028546
20
51.401095443444696
10
48.622265067458706
20
51.201877891769726
10
49.021158334043037
20
51.083288001704084
10
49.21954589712503
20
51.062765150350756
10
49.426720361839919
20
51.040957311960362
10
49.536787242239186
20
51.051963999999998
10
66.332096000000007
20
51.051963999999998
10
66.332096000000007
20
47.261851174543359
10
66.320820781378899
20
47.154736597643478
10
66.36316850732284
20
46.741846269689205
10
66.482009891769735
20
46.342107067458436
10
66.681227443445209
20
45.975977513027843
10
66.939655272891002
20
45.659535272890501
10
67.256097513028138
20
45.401107443445056
0
LINE
5
214
100
AcDbEntity
8
0
100
AcDbLine
10
105.71810200000002
20
-0.94802400000000731
30
0
11
103.71810200000002
21
-0.94802400000000731
31
0
0
LINE
5
215
100
AcDbEntity
8
0
100
AcDbLine
10
103.71810200000002
20
-0.94802400000000731
30
0
11
103.71810200000002
21
-10.948024000000007
31
0
0
LINE
5
216
100
AcDbEntity
8
0
100
AcDbLine
10
103.71810200000002
20
-10.948024000000007
30
0
11
105.71810200000002
21
-10.948024000000007
31
0
0
LINE
5
217
100
AcDbEntity
8
0
100
AcDbLine
10
105.71810200000002
20
-10.948024000000007
30
0
11
105.71810200000002
21
-0.94802400000000731
31
0
0
LINE
5
218
100
AcDbEntity
8
0
100
AcDbLine
10
105.71810200000002
20
-0.94802400000000731
30
0
11
106.918102
21
-0.94802400000000731
31
0
0
LINE
5
219
100
AcDbEntity
8
0
100
AcDbLine
10
105.71810200000002
20
-10.948024000000007
30
0
11
106.918102
21
-10.948024000000007
31
0
0
LWPOLYLINE
5
220
100
AcDbEntity
8
0
100
AcDbPolyline
90
4
70
1
43
0.0
10
87.718102000000016
20
48.251975999999999
10
100.71810200000002
20
48.251975999999999
10
100.71810200000002
20
45.051975999999996
10
87.718102000000016
20
45.051975999999996
0
ENDSEC
0
SECTION
2
OBJECTS
0
DICTIONARY
5
C
100
AcDbDictionary
3
ACAD_GROUP
350
D
3
ACAD_MLINESTYLE
350
17
0
DICTIONARY
5
D
100
AcDbDictionary
0
DICTIONARY
5
1A
330
C
100
AcDbDictionary
0
DICTIONARY
5
17
100
AcDbDictionary
0
ENDSEC
0
EOF
