0
SECTION
2
HEADER
9
$INSUNITS
70
4
9
$ACADVER
1
AC1014
9
$HANDSEED
5
FFFF
0
ENDSEC
0
SECTION
2
TABLES
0
TABLE
2
VPORT
5
8
100
AcDbSymbolTable
0
ENDTAB
0
TABLE
2
LTYPE
5
5
100
AcDbSymbolTable
0
LTYPE
5
14
100
AcDbSymbolTableRecord
100
AcDbLinetypeTableRecord
2
BYBLOCK
70
0
0
LTYPE
5
15
100
AcDbSymbolTableRecord
100
AcDbLinetypeTableRecord
2
BYLAYER
70
0
0
ENDTAB
0
TABLE
2
LAYER
5
2
100
AcDbSymbolTable
70
2
0
LAYER
5
50
100
AcDbSymbolTableRecord
100
AcDbLayerTableRecord
2
0
70
0
6
CONTINUOUS
0
ENDTAB
0
TABLE
2
STYLE
5
3
100
AcDbSymbolTable
70
1
0
STYLE
5
11
100
AcDbSymbolTableRecord
100
AcDbTextStyleTableRecord
2
STANDARD
70
0
0
ENDTAB
0
TABLE
2
VIEW
5
6
100
AcDbSymbolTable
70
0
0
ENDTAB
0
TABLE
2
UCS
5
7
100
AcDbSymbolTable
70
0
0
ENDTAB
0
TABLE
2
APPID
5
9
100
AcDbSymbolTable
70
2
0
APPID
5
12
100
AcDbSymbolTableRecord
100
AcDbRegAppTableRecord
2
ACAD
70
0
0
ENDTAB
0
TABLE
2
DIMSTYLE
5
A
100
AcDbSymbolTable
70
1
0
ENDTAB
0
TABLE
2
BLOCK_RECORD
5
1
100
AcDbSymbolTable
70
1
0
BLOCK_RECORD
5
1F
100
AcDbSymbolTableRecord
100
AcDbBlockTableRecord
2
*MODEL_SPACE
0
BLOCK_RECORD
5
1B
100
AcDbSymbolTableRecord
100
AcDbBlockTableRecord
2
*PAPER_SPACE
0
ENDTAB
0
ENDSEC
0
SECTION
2
BLOCKS
0
BLOCK
5
20
100
AcDbEntity
100
AcDbBlockBegin
2
*MODEL_SPACE
0
ENDBLK
5
21
100
AcDbEntity
100
AcDbBlockEnd
0
BLOCK
5
1C
100
AcDbEntity
100
AcDbBlockBegin
2
*PAPER_SPACE
0
ENDBLK
5
1D
100
AcDbEntity
100
AcDbBlockEnd
0
ENDSEC
0
SECTION
2
ENTITIES
0
LWPOLYLINE
5
100
100
AcDbEntity
8
0
100
AcDbPolyline
90
97
70
1
43
0.0
10
28.524962000000002
20
57.113424000000002
10
28.530550000000005
20
57.132220000000004
10
28.532582000000005
20
57.152032000000013
10
28.532074000000005
20
57.156857999999993
10
28.532074000000005
20
63.051943999999992
10
49.332133999999996
20
63.051943999999992
10
49.332133999999996
20
53.156866000000001
10
49.331626
20
53.152040000000014
10
49.333404000000002
20
53.132228000000019
10
49.33924600000001
20
53.113432000000003
10
49.348643999999993
20
53.096159999999998
10
49.361090000000004
20
53.080919999999992
10
49.37633000000001
20
53.068473999999988
10
49.393602000000001
20
53.059076000000012
10
49.41239800000001
20
53.053488000000009
10
49.427130000000012
20
53.051963999999998
10
49.431956000000028
20
53.051456000000023
10
49.437035999999999
20
53.051963999999998
10
68.332096000000007
20
53.051963999999998
10
68.332096000000007
20
47.156878000000006
10
68.331588000000011
20
47.152051999999998
10
68.333619999999996
20
47.132240000000003
10
68.339207999999999
20
47.113444000000008
10
68.348606000000004
20
47.096172000000003
10
68.361052000000001
20
47.080931999999997
10
68.376291999999992
20
47.068486000000007
10
68.393563999999998
20
47.059088000000003
10
68.412360000000007
20
47.0535
10
68.427091999999988
20
47.05197600000001
10
68.432171999999994
20
47.051468000000007
10
68.436998000000003
20
47.05197600000001
10
105.71810200000002
20
47.05197600000001
10
105.71810200000002
20
9.5250000000000021
10
105.71810200000002
20
-0.94802400000000731
10
105.71810200000002
20
-30.364684000000004
10
90.587576000000013
20
-49.05628999999999
10
77.367384000000001
20
-38.325806000000007
10
77.36433599999998
20
-38.322758000000007
10
77.359763999999998
20
-38.319710000000015
10
77.359256000000016
20
-38.319201999999997
10
77.355700000000013
20
-38.316915999999999
10
77.348079999999982
20
-38.311836
10
77.347318000000001
20
-38.311582000000001
10
77.346810000000005
20
-38.311074000000012
10
77.338427999999993
20
-38.307772
10
77.334363999999994
20
-38.305994000000013
10
77.333856000000026
20
-38.30574
10
77.328521999999978
20
-38.303708
10
77.324457999999964
20
-38.302946000000013
10
-9.4511368000000004
20
-11.299621800000001
10
-12.922783399999993
20
28.381451999999999
10
9.4314517999999996
20
30.29966000000001
10
9.4320867999999987
20
30.299406000000001
10
9.4411546000000008
20
30.300422000000005
10
9.4454980000000006
20
30.300676000000003
10
9.4461329999999997
20
30.300930000000005
10
9.4516702000000006
20
30.301438000000005
10
9.4557850000000006
20
30.302708000000006
10
9.4600267999999961
20
30.303470000000004
10
9.4652084000000016
20
30.305502000000004
10
9.4705169999999992
20
30.307279999999999
10
9.4743270000000006
20
30.309311999999995
10
9.4783147999999997
20
30.310836000000002
10
9.4829884
20
30.313884000000005
10
9.4878906000000001
20
30.316424000000005
10
9.4912180000000017
20
30.319217999999999
10
9.4948501999999984
20
30.321504000000004
10
9.4988379999999992
20
30.325313999999999
10
9.5031305999999987
20
30.328870000000002
10
9.5058483999999996
20
30.332171999999996
10
9.5089471999999997
20
30.33522
10
9.5120968000000001
20
30.33979200000001
10
9.5156273999999961
20
30.344110000000004
10
9.5176593999999994
20
30.347919999999998
10
9.5200977999999985
20
30.351476000000002
10
9.5222821999999994
20
30.356556000000001
10
9.5248983999999997
20
30.361636000000001
10
9.5261683999999995
20
30.365700000000004
10
9.5278447999999987
20
30.369510000000002
10
9.5290132000000014
20
30.375098000000005
10
9.5306388000000002
20
30.380432000000006
10
9.5310451999999994
20
30.38475
10
9.5319342000000002
20
30.388814000000004
10
9.5320104000000008
20
30.394401999999999
10
9.5320865999999995
20
30.395164000000001
10
9.5320865999999995
20
30.399481999999995
10
9.5321881999999984
20
30.408626000000005
10
9.5320865999999995
20
30.409134000000009
10
9.5320865999999995
20
57.051955999999997
10
28.427171999999995
20
57.051955999999997
10
28.431998000000007
20
57.051447999999993
10
28.43707800000001
20
57.051955999999997
10
28.451556
20
57.053480000000008
10
28.470605999999997
20
57.059068000000011
10
28.487878000000002
20
57.068466000000001
10
28.503118000000001
20
57.080911999999998
10
28.515564000000001
20
57.096151999999989
0
ENDSEC
0
SECTION
2
OBJECTS
0
DICTIONARY
5
C
100
AcDbDictionary
3
ACAD_GROUP
350
D
3
ACAD_MLINESTYLE
350
17
0
DICTIONARY
5
D
100
AcDbDictionary
0
DICTIONARY
5
1A
330
C
100
AcDbDictionary
0
DICTIONARY
5
17
100
AcDbDictionary
0
ENDSEC
0
EOF
