0
SECTION
2
HEADER
9
$INSUNITS
70
4
9
$ACADVER
1
AC1014
9
$HANDSEED
5
FFFF
0
ENDSEC
0
SECTION
2
TABLES
0
TABLE
2
VPORT
5
8
100
AcDbSymbolTable
0
ENDTAB
0
TABLE
2
LTYPE
5
5
100
AcDbSymbolTable
0
LTYPE
5
14
100
AcDbSymbolTableRecord
100
AcDbLinetypeTableRecord
2
BYBLOCK
70
0
0
LTYPE
5
15
100
AcDbSymbolTableRecord
100
AcDbLinetypeTableRecord
2
BYLAYER
70
0
0
ENDTAB
0
TABLE
2
LAYER
5
2
100
AcDbSymbolTable
70
2
0
LAYER
5
50
100
AcDbSymbolTableRecord
100
AcDbLayerTableRecord
2
0
70
0
6
CONTINUOUS
0
ENDTAB
0
TABLE
2
STYLE
5
3
100
AcDbSymbolTable
70
1
0
STYLE
5
11
100
AcDbSymbolTableRecord
100
AcDbTextStyleTableRecord
2
STANDARD
70
0
0
ENDTAB
0
TABLE
2
VIEW
5
6
100
AcDbSymbolTable
70
0
0
ENDTAB
0
TABLE
2
UCS
5
7
100
AcDbSymbolTable
70
0
0
ENDTAB
0
TABLE
2
APPID
5
9
100
AcDbSymbolTable
70
2
0
APPID
5
12
100
AcDbSymbolTableRecord
100
AcDbRegAppTableRecord
2
ACAD
70
0
0
ENDTAB
0
TABLE
2
DIMSTYLE
5
A
100
AcDbSymbolTable
70
1
0
ENDTAB
0
TABLE
2
BLOCK_RECORD
5
1
100
AcDbSymbolTable
70
1
0
BLOCK_RECORD
5
1F
100
AcDbSymbolTableRecord
100
AcDbBlockTableRecord
2
*MODEL_SPACE
0
BLOCK_RECORD
5
1B
100
AcDbSymbolTableRecord
100
AcDbBlockTableRecord
2
*PAPER_SPACE
0
ENDTAB
0
ENDSEC
0
SECTION
2
BLOCKS
0
BLOCK
5
20
100
AcDbEntity
100
AcDbBlockBegin
2
*MODEL_SPACE
0
ENDBLK
5
21
100
AcDbEntity
100
AcDbBlockEnd
0
BLOCK
5
1C
100
AcDbEntity
100
AcDbBlockBegin
2
*PAPER_SPACE
0
ENDBLK
5
1D
100
AcDbEntity
100
AcDbBlockEnd
0
ENDSEC
0
SECTION
2
ENTITIES
0
LINE
5
100
100
AcDbEntity
8
0
100
AcDbLine
10
68.432171999999994
20
47.051468000000007
30
0
11
68.427091999999988
21
47.05197600000001
31
0
0
LINE
5
101
100
AcDbEntity
8
0
100
AcDbLine
10
68.339207999999999
20
47.113444000000008
30
0
11
68.333619999999996
21
47.132240000000003
31
0
0
LINE
5
102
100
AcDbEntity
8
0
100
AcDbLine
10
49.348643999999993
20
53.096159999999998
30
0
11
49.33924600000001
21
53.113432000000003
31
0
0
LINE
5
103
100
AcDbEntity
8
0
100
AcDbLine
10
68.376291999999992
20
47.068486000000007
30
0
11
68.361052000000001
21
47.080931999999997
31
0
0
LINE
5
104
100
AcDbEntity
8
0
100
AcDbLine
10
68.393563999999998
20
47.059088000000003
30
0
11
68.376291999999992
21
47.068486000000007
31
0
0
LINE
5
105
100
AcDbEntity
8
0
100
AcDbLine
10
68.348606000000004
20
47.096172000000003
30
0
11
68.339207999999999
21
47.113444000000008
31
0
0
LINE
5
106
100
AcDbEntity
8
0
100
AcDbLine
10
49.41239800000001
20
53.053488000000009
30
0
11
49.393602000000001
21
53.059076000000012
31
0
0
LINE
5
107
100
AcDbEntity
8
0
100
AcDbLine
10
28.532582000000005
20
57.152032000000013
30
0
11
28.530550000000005
21
57.132220000000004
31
0
0
LINE
5
108
100
AcDbEntity
8
0
100
AcDbLine
10
49.427130000000012
20
53.051963999999998
30
0
11
49.41239800000001
21
53.053488000000009
31
0
0
LINE
5
109
100
AcDbEntity
8
0
100
AcDbLine
10
28.530550000000005
20
57.132220000000004
30
0
11
28.524962000000002
21
57.113424000000002
31
0
0
LINE
5
110
100
AcDbEntity
8
0
100
AcDbLine
10
49.361090000000004
20
53.080919999999992
30
0
11
49.348643999999993
21
53.096159999999998
31
0
0
LINE
5
111
100
AcDbEntity
8
0
100
AcDbLine
10
49.332133999999996
20
63.051943999999992
30
0
11
28.532074000000005
21
63.051943999999992
31
0
0
LINE
5
112
100
AcDbEntity
8
0
100
AcDbLine
10
105.71810200000002
20
9.5250000000000021
30
0
11
105.71810200000002
21
47.05197600000001
31
0
0
LINE
5
113
100
AcDbEntity
8
0
100
AcDbLine
10
49.331626
20
53.152040000000014
30
0
11
49.332133999999996
21
53.156866000000001
31
0
0
LINE
5
114
100
AcDbEntity
8
0
100
AcDbLine
10
105.71810200000002
20
47.05197600000001
30
0
11
68.436998000000003
21
47.05197600000001
31
0
0
LINE
5
115
100
AcDbEntity
8
0
100
AcDbLine
10
49.431956000000028
20
53.051456000000023
30
0
11
49.427130000000012
21
53.051963999999998
31
0
0
LINE
5
116
100
AcDbEntity
8
0
100
AcDbLine
10
68.361052000000001
20
47.080931999999997
30
0
11
68.348606000000004
21
47.096172000000003
31
0
0
LINE
5
117
100
AcDbEntity
8
0
100
AcDbLine
10
68.333619999999996
20
47.132240000000003
30
0
11
68.331588000000011
21
47.152051999999998
31
0
0
LINE
5
118
100
AcDbEntity
8
0
100
AcDbLine
10
49.333404000000002
20
53.132228000000019
30
0
11
49.331626
21
53.152040000000014
31
0
0
LINE
5
119
100
AcDbEntity
8
0
100
AcDbLine
10
68.412360000000007
20
47.0535
30
0
11
68.393563999999998
21
47.059088000000003
31
0
0
LINE
5
120
100
AcDbEntity
8
0
100
AcDbLine
10
49.37633000000001
20
53.068473999999988
30
0
11
49.361090000000004
21
53.080919999999992
31
0
0
LINE
5
121
100
AcDbEntity
8
0
100
AcDbLine
10
68.332096000000007
20
47.156878000000006
30
0
11
68.332096000000007
21
53.051963999999998
31
0
0
LINE
5
122
100
AcDbEntity
8
0
100
AcDbLine
10
49.437035999999999
20
53.051963999999998
30
0
11
49.431956000000028
21
53.051456000000023
31
0
0
LINE
5
123
100
AcDbEntity
8
0
100
AcDbLine
10
68.427091999999988
20
47.05197600000001
30
0
11
68.412360000000007
21
47.0535
31
0
0
LINE
5
124
100
AcDbEntity
8
0
100
AcDbLine
10
9.4461329999999997
20
30.300930000000005
30
0
11
9.4454980000000006
21
30.300676000000003
31
0
0
LINE
5
125
100
AcDbEntity
8
0
100
AcDbLine
10
9.4783147999999997
20
30.310836000000002
30
0
11
9.4743270000000006
21
30.309311999999995
31
0
0
LINE
5
126
100
AcDbEntity
8
0
100
AcDbLine
10
9.5321881999999984
20
30.408626000000005
30
0
11
9.5320865999999995
21
30.399481999999995
31
0
0
LINE
5
127
100
AcDbEntity
8
0
100
AcDbLine
10
77.328521999999978
20
-38.303708
30
0
11
77.333856000000026
21
-38.30574
31
0
0
LINE
5
128
100
AcDbEntity
8
0
100
AcDbLine
10
49.332133999999996
20
53.156866000000001
30
0
11
49.332133999999996
21
63.051943999999992
31
0
0
LINE
5
129
100
AcDbEntity
8
0
100
AcDbLine
10
68.436998000000003
20
47.05197600000001
30
0
11
68.432171999999994
21
47.051468000000007
31
0
0
LINE
5
130
100
AcDbEntity
8
0
100
AcDbLine
10
28.524962000000002
20
57.113424000000002
30
0
11
28.515564000000001
21
57.096151999999989
31
0
0
LINE
5
131
100
AcDbEntity
8
0
100
AcDbLine
10
9.5319342000000002
20
30.388814000000004
30
0
11
9.5310451999999994
21
30.38475
31
0
0
LINE
5
132
100
AcDbEntity
8
0
100
AcDbLine
10
9.4454980000000006
20
30.300676000000003
30
0
11
9.4411546000000008
21
30.300422000000005
31
0
0
LINE
5
133
100
AcDbEntity
8
0
100
AcDbLine
10
68.331588000000011
20
47.152051999999998
30
0
11
68.332096000000007
21
47.156878000000006
31
0
0
LINE
5
134
100
AcDbEntity
8
0
100
AcDbLine
10
28.532074000000005
20
57.156857999999993
30
0
11
28.532582000000005
21
57.152032000000013
31
0
0
LINE
5
135
100
AcDbEntity
8
0
100
AcDbLine
10
68.332096000000007
20
53.051963999999998
30
0
11
49.437035999999999
21
53.051963999999998
31
0
0
LINE
5
136
100
AcDbEntity
8
0
100
AcDbLine
10
49.393602000000001
20
53.059076000000012
30
0
11
49.37633000000001
21
53.068473999999988
31
0
0
LINE
5
137
100
AcDbEntity
8
0
100
AcDbLine
10
28.503118000000001
20
57.080911999999998
30
0
11
28.487878000000002
21
57.068466000000001
31
0
0
LINE
5
138
100
AcDbEntity
8
0
100
AcDbLine
10
28.427171999999995
20
57.051955999999997
30
0
11
9.5320865999999995
21
57.051955999999997
31
0
0
LINE
5
139
100
AcDbEntity
8
0
100
AcDbLine
10
-9.4511368000000004
20
-11.299621800000001
30
0
11
77.324457999999964
21
-38.302946000000013
31
0
0
LINE
5
140
100
AcDbEntity
8
0
100
AcDbLine
10
9.5320104000000008
20
30.394401999999999
30
0
11
9.5319342000000002
21
30.388814000000004
31
0
0
LINE
5
141
100
AcDbEntity
8
0
100
AcDbLine
10
9.5200977999999985
20
30.351476000000002
30
0
11
9.5176593999999994
21
30.347919999999998
31
0
0
LINE
5
142
100
AcDbEntity
8
0
100
AcDbLine
10
77.347318000000001
20
-38.311582000000001
30
0
11
77.348079999999982
21
-38.311836
31
0
0
LINE
5
143
100
AcDbEntity
8
0
100
AcDbLine
10
49.33924600000001
20
53.113432000000003
30
0
11
49.333404000000002
21
53.132228000000019
31
0
0
LINE
5
144
100
AcDbEntity
8
0
100
AcDbLine
10
28.532074000000005
20
63.051943999999992
30
0
11
28.532074000000005
21
57.156857999999993
31
0
0
LINE
5
145
100
AcDbEntity
8
0
100
AcDbLine
10
9.5222821999999994
20
30.356556000000001
30
0
11
9.5200977999999985
21
30.351476000000002
31
0
0
LINE
5
146
100
AcDbEntity
8
0
100
AcDbLine
10
77.324457999999964
20
-38.302946000000013
30
0
11
77.328521999999978
21
-38.303708
31
0
0
LINE
5
147
100
AcDbEntity
8
0
100
AcDbLine
10
9.5310451999999994
20
30.38475
30
0
11
9.5306388000000002
21
30.380432000000006
31
0
0
LINE
5
148
100
AcDbEntity
8
0
100
AcDbLine
10
9.4557850000000006
20
30.302708000000006
30
0
11
9.4516702000000006
21
30.301438000000005
31
0
0
LINE
5
149
100
AcDbEntity
8
0
100
AcDbLine
10
28.487878000000002
20
57.068466000000001
30
0
11
28.470605999999997
21
57.059068000000011
31
0
0
LINE
5
150
100
AcDbEntity
8
0
100
AcDbLine
10
9.4829884
20
30.313884000000005
30
0
11
9.4783147999999997
21
30.310836000000002
31
0
0
LINE
5
151
100
AcDbEntity
8
0
100
AcDbLine
10
77.359256000000016
20
-38.319201999999997
30
0
11
77.359763999999998
21
-38.319710000000015
31
0
0
LINE
5
152
100
AcDbEntity
8
0
100
AcDbLine
10
28.470605999999997
20
57.059068000000011
30
0
11
28.451556
21
57.053480000000008
31
0
0
LINE
5
153
100
AcDbEntity
8
0
100
AcDbLine
10
77.36433599999998
20
-38.322758000000007
30
0
11
77.367384000000001
21
-38.325806000000007
31
0
0
LINE
5
154
100
AcDbEntity
8
0
100
AcDbLine
10
105.71810200000002
20
-30.364684000000004
30
0
11
105.71810200000002
21
-0.94802400000000731
31
0
0
LINE
5
155
100
AcDbEntity
8
0
100
AcDbLine
10
9.5320865999999995
20
30.395164000000001
30
0
11
9.5320104000000008
21
30.394401999999999
31
0
0
LINE
5
156
100
AcDbEntity
8
0
100
AcDbLine
10
9.4600267999999961
20
30.303470000000004
30
0
11
9.4557850000000006
21
30.302708000000006
31
0
0
LINE
5
157
100
AcDbEntity
8
0
100
AcDbLine
10
9.5248983999999997
20
30.361636000000001
30
0
11
9.5222821999999994
21
30.356556000000001
31
0
0
LINE
5
158
100
AcDbEntity
8
0
100
AcDbLine
10
9.5058483999999996
20
30.332171999999996
30
0
11
9.5031305999999987
21
30.328870000000002
31
0
0
LINE
5
159
100
AcDbEntity
8
0
100
AcDbLine
10
9.5290132000000014
20
30.375098000000005
30
0
11
9.5278447999999987
21
30.369510000000002
31
0
0
LINE
5
160
100
AcDbEntity
8
0
100
AcDbLine
10
9.5306388000000002
20
30.380432000000006
30
0
11
9.5290132000000014
21
30.375098000000005
31
0
0
LINE
5
161
100
AcDbEntity
8
0
100
AcDbLine
10
9.5320865999999995
20
30.399481999999995
30
0
11
9.5320865999999995
21
30.395164000000001
31
0
0
LINE
5
162
100
AcDbEntity
8
0
100
AcDbLine
10
9.5320865999999995
20
57.051955999999997
30
0
11
9.5320865999999995
21
30.409134000000009
31
0
0
LINE
5
163
100
AcDbEntity
8
0
100
AcDbLine
10
9.4912180000000017
20
30.319217999999999
30
0
11
9.4878906000000001
21
30.316424000000005
31
0
0
LINE
5
164
100
AcDbEntity
8
0
100
AcDbLine
10
9.4878906000000001
20
30.316424000000005
30
0
11
9.4829884
21
30.313884000000005
31
0
0
LINE
5
165
100
AcDbEntity
8
0
100
AcDbLine
10
9.4411546000000008
20
30.300422000000005
30
0
11
9.4320867999999987
21
30.299406000000001
31
0
0
LINE
5
166
100
AcDbEntity
8
0
100
AcDbLine
10
77.338427999999993
20
-38.307772
30
0
11
77.346810000000005
21
-38.311074000000012
31
0
0
LINE
5
167
100
AcDbEntity
8
0
100
AcDbLine
10
77.346810000000005
20
-38.311074000000012
30
0
11
77.347318000000001
21
-38.311582000000001
31
0
0
LINE
5
168
100
AcDbEntity
8
0
100
AcDbLine
10
-12.922783399999995
20
28.381451999999999
30
0
11
-9.4511368000000004
21
-11.299621800000001
31
0
0
LINE
5
169
100
AcDbEntity
8
0
100
AcDbLine
10
90.587576000000013
20
-49.05628999999999
30
0
11
105.71810200000002
21
-30.364684000000004
31
0
0
LINE
5
170
100
AcDbEntity
8
0
100
AcDbLine
10
9.5176593999999994
20
30.347919999999998
30
0
11
9.5156273999999961
21
30.344110000000004
31
0
0
LINE
5
171
100
AcDbEntity
8
0
100
AcDbLine
10
9.5120968000000001
20
30.33979200000001
30
0
11
9.5089471999999997
21
30.33522
31
0
0
LINE
5
172
100
AcDbEntity
8
0
100
AcDbLine
10
9.5320865999999995
20
30.409134000000009
30
0
11
9.5321881999999984
21
30.408626000000005
31
0
0
LINE
5
173
100
AcDbEntity
8
0
100
AcDbLine
10
9.4705169999999992
20
30.307279999999999
30
0
11
9.4652084000000016
21
30.305502000000004
31
0
0
LINE
5
174
100
AcDbEntity
8
0
100
AcDbLine
10
9.4320867999999987
20
30.299406000000001
30
0
11
9.4314517999999996
21
30.29966000000001
31
0
0
LINE
5
175
100
AcDbEntity
8
0
100
AcDbLine
10
28.43707800000001
20
57.051955999999997
30
0
11
28.431998000000007
21
57.051447999999993
31
0
0
LINE
5
176
100
AcDbEntity
8
0
100
AcDbLine
10
77.367384000000001
20
-38.325806000000007
30
0
11
90.587576000000013
21
-49.05628999999999
31
0
0
LINE
5
177
100
AcDbEntity
8
0
100
AcDbLine
10
77.333856000000026
20
-38.30574
30
0
11
77.334363999999994
21
-38.305994000000013
31
0
0
LINE
5
178
100
AcDbEntity
8
0
100
AcDbLine
10
28.431998000000007
20
57.051447999999993
30
0
11
28.427171999999995
21
57.051955999999997
31
0
0
LINE
5
179
100
AcDbEntity
8
0
100
AcDbLine
10
9.5031305999999987
20
30.328870000000002
30
0
11
9.4988379999999992
21
30.325313999999999
31
0
0
LINE
5
180
100
AcDbEntity
8
0
100
AcDbLine
10
9.5089471999999997
20
30.33522
30
0
11
9.5058483999999996
21
30.332171999999996
31
0
0
LINE
5
181
100
AcDbEntity
8
0
100
AcDbLine
10
9.4652084000000016
20
30.305502000000004
30
0
11
9.4600267999999961
21
30.303470000000004
31
0
0
LINE
5
182
100
AcDbEntity
8
0
100
AcDbLine
10
9.4516702000000006
20
30.301438000000005
30
0
11
9.4461329999999997
21
30.300930000000005
31
0
0
LINE
5
183
100
AcDbEntity
8
0
100
AcDbLine
10
9.5278447999999987
20
30.369510000000002
30
0
11
9.5261683999999995
21
30.365700000000004
31
0
0
LINE
5
184
100
AcDbEntity
8
0
100
AcDbLine
10
77.348079999999982
20
-38.311836
30
0
11
77.355700000000013
21
-38.316915999999999
31
0
0
LINE
5
185
100
AcDbEntity
8
0
100
AcDbLine
10
9.4948501999999984
20
30.321504000000004
30
0
11
9.4912180000000017
21
30.319217999999999
31
0
0
LINE
5
186
100
AcDbEntity
8
0
100
AcDbLine
10
9.4743270000000006
20
30.309311999999995
30
0
11
9.4705169999999992
21
30.307279999999999
31
0
0
LINE
5
187
100
AcDbEntity
8
0
100
AcDbLine
10
28.515564000000001
20
57.096151999999989
30
0
11
28.503118000000001
21
57.080911999999998
31
0
0
LINE
5
188
100
AcDbEntity
8
0
100
AcDbLine
10
9.5156273999999961
20
30.344110000000004
30
0
11
9.5120968000000001
21
30.33979200000001
31
0
0
LINE
5
189
100
AcDbEntity
8
0
100
AcDbLine
10
105.71810200000002
20
9.5250000000000021
30
0
11
105.71810200000002
21
-0.94802400000000731
31
0
0
LINE
5
190
100
AcDbEntity
8
0
100
AcDbLine
10
9.4314517999999996
20
30.29966000000001
30
0
11
-12.922783399999995
21
28.381451999999999
31
0
0
LINE
5
191
100
AcDbEntity
8
0
100
AcDbLine
10
77.355700000000013
20
-38.316915999999999
30
0
11
77.359256000000016
21
-38.319201999999997
31
0
0
LINE
5
192
100
AcDbEntity
8
0
100
AcDbLine
10
77.359763999999998
20
-38.319710000000015
30
0
11
77.36433599999998
21
-38.322758000000007
31
0
0
LINE
5
193
100
AcDbEntity
8
0
100
AcDbLine
10
28.451556
20
57.053480000000008
30
0
11
28.43707800000001
21
57.051955999999997
31
0
0
LINE
5
194
100
AcDbEntity
8
0
100
AcDbLine
10
77.334363999999994
20
-38.305994000000013
30
0
11
77.338427999999993
21
-38.307772
31
0
0
LINE
5
195
100
AcDbEntity
8
0
100
AcDbLine
10
9.4988379999999992
20
30.325313999999999
30
0
11
9.4948501999999984
21
30.321504000000004
31
0
0
LINE
5
196
100
AcDbEntity
8
0
100
AcDbLine
10
9.5261683999999995
20
30.365700000000004
30
0
11
9.5248983999999997
21
30.361636000000001
31
0
0
LWPOLYLINE
5
197
100
AcDbEntity
8
0
100
AcDbPolyline
90
4
70
1
43
0.0
10
101.83975974878977
20
44.841665172101941
10
101.83975974878977
20
52.87026188079389
10
88.839759748789788
20
52.87026188079389
10
88.839759748789788
20
44.841665172101941
0
LINE
5
198
100
AcDbEntity
8
0
100
AcDbLine
10
105.71810200000002
20
-0.94802400000000731
30
0
11
103.71810200000002
21
-0.9480240000000062
31
0
0
LINE
5
199
100
AcDbEntity
8
0
100
AcDbLine
10
105.71810200000002
20
-0.94802400000000731
30
0
11
111.00000165402891
21
-0.94802400000000642
31
0
0
LINE
5
200
100
AcDbEntity
8
0
100
AcDbLine
10
103.71810200000002
20
-0.9480240000000062
30
0
11
103.71810200000002
21
-10.948024000000007
31
0
0
LINE
5
201
100
AcDbEntity
8
0
100
AcDbLine
10
103.71810200000002
20
-10.948024000000007
30
0
11
105.71810200000002
21
-10.948024000000007
31
0
0
LINE
5
202
100
AcDbEntity
8
0
100
AcDbLine
10
105.71810200000002
20
-10.948024000000007
30
0
11
105.71810200000002
21
-0.94802400000000731
31
0
0
LINE
5
203
100
AcDbEntity
8
0
100
AcDbLine
10
105.71810200000002
20
-10.948024000000007
30
0
11
111.00000165402889
21
-10.948024000000007
31
0
0
LWPOLYLINE
5
204
100
AcDbEntity
8
0
100
AcDbPolyline
90
16
70
1
43
0.0
10
108.71810200000002
20
-0.9480240000000062
10
108.71810200000002
20
9.5250000000000057
10
108.71810200000002
20
50.05197600000001
10
71.332096000000007
20
50.05197600000001
10
71.332096000000007
20
56.051963999999998
10
52.332133999999996
20
56.051963999999998
10
52.332133999999996
20
66.051943999999992
10
25.532074000000009
20
66.051943999999992
10
25.532074000000009
20
60.051955999999997
10
6.5320866000000022
20
60.051955999999997
10
6.5320865999999995
20
33.061891303605236
10
-16.17327102029957
20
31.113553628866995
10
-12.264304768722223
20
-13.566103082317369
10
75.905906394638862
20
-41.00341195140853
10
91.029323556081636
20
-53.278694025692069
10
108.71810200000002
20
-31.426732151067526
0
CIRCLE
5
205
100
AcDbEntity
8
0
100
AcDbCircle
10
79.649174741442991
20
-28.141921011125746
30
0
40
3.0000000000000004
210
0
220
0
230
1
0
CIRCLE
5
206
100
AcDbEntity
8
0
100
AcDbCircle
10
8.633456776392487
20
10.29082639312648
30
0
40
3.0000000000000004
210
0
220
0
230
1
0
CIRCLE
5
207
100
AcDbEntity
8
0
100
AcDbCircle
10
29.449999341741204
20
43.149999035522342
30
0
40
1.1000000000000001
210
0
220
0
230
1
0
CIRCLE
5
208
100
AcDbEntity
8
0
100
AcDbCircle
10
29.449999341741204
20
43.149999035522342
30
0
40
3.0000000000000004
210
0
220
0
230
1
0
CIRCLE
5
209
100
AcDbEntity
8
0
100
AcDbCircle
10
67.432005110500356
20
33.150495603904417
30
0
40
1.1000000000000001
210
0
220
0
230
1
0
CIRCLE
5
210
100
AcDbEntity
8
0
100
AcDbCircle
10
8.633456776392487
20
10.29082639312648
30
0
40
1.1000000000000001
210
0
220
0
230
1
0
CIRCLE
5
211
100
AcDbEntity
8
0
100
AcDbCircle
10
79.649174741442991
20
-28.141921011125746
30
0
40
1.1000000000000001
210
0
220
0
230
1
0
CIRCLE
5
212
100
AcDbEntity
8
0
100
AcDbCircle
10
40.414436279197226
20
-16.131885203694658
30
0
40
3.0000000000000004
210
0
220
0
230
1
0
CIRCLE
5
213
100
AcDbEntity
8
0
100
AcDbCircle
10
67.432005110500356
20
33.150495603904417
30
0
40
3.0000000000000004
210
0
220
0
230
1
0
CIRCLE
5
214
100
AcDbEntity
8
0
100
AcDbCircle
10
40.414436279197226
20
-16.131885203694658
30
0
40
1.1000000000000001
210
0
220
0
230
1
0
LINE
5
215
100
AcDbEntity
8
0
100
AcDbLine
10
105.71810200000002
20
47.05197600000001
30
0
11
84.718102000000016
21
47.05197600000001
31
0
0
LINE
5
216
100
AcDbEntity
8
0
100
AcDbLine
10
84.718102000000016
20
47.05197600000001
30
0
11
84.718102000000016
21
9.0519760000000069
31
0
0
LINE
5
217
100
AcDbEntity
8
0
100
AcDbLine
10
84.718102000000016
20
9.0519760000000069
30
0
11
105.71810200000002
21
9.0519760000000069
31
0
0
LINE
5
218
100
AcDbEntity
8
0
100
AcDbLine
10
105.71810200000002
20
9.0519760000000069
30
0
11
105.71810200000002
21
47.05197600000001
31
0
0
LINE
5
219
100
AcDbEntity
8
0
100
AcDbLine
10
105.71810200000002
20
0.0039989214803437534
30
0
11
91.718102000000016
21
0.0039989214803437534
31
0
0
LINE
5
220
100
AcDbEntity
8
0
100
AcDbLine
10
91.718102000000016
20
0.0039989214803437534
30
0
11
91.718102000000016
21
-11.996001078519658
31
0
0
LINE
5
221
100
AcDbEntity
8
0
100
AcDbLine
10
91.718102000000016
20
-11.996001078519658
30
0
11
105.71810200000002
21
-11.996001078519658
31
0
0
LINE
5
222
100
AcDbEntity
8
0
100
AcDbLine
10
105.71810200000002
20
-11.996001078519658
30
0
11
105.71810200000002
21
0.0039989214803437534
31
0
0
LINE
5
223
100
AcDbEntity
8
0
100
AcDbLine
10
105.71810200000002
20
0.0039989214803437534
30
0
11
120.00000178813934
21
0.0039989214803437534
31
0
0
LINE
5
224
100
AcDbEntity
8
0
100
AcDbLine
10
120.00000178813934
20
0.0039989214803437534
30
0
11
120.00000178813934
21
-12.000000178813934
31
0
0
LINE
5
225
100
AcDbEntity
8
0
100
AcDbLine
10
120.00000178813934
20
-12.000000178813934
30
0
11
105.71810200000002
21
-12.000000178813934
31
0
0
LINE
5
226
100
AcDbEntity
8
0
100
AcDbLine
10
105.71810200000002
20
-12.000000178813934
30
0
11
105.71810200000002
21
0.0039989214803437534
31
0
0
LWPOLYLINE
5
227
100
AcDbEntity
8
0
100
AcDbPolyline
90
16
70
1
43
0.0
10
109.91810200000002
20
51.251976000000006
10
109.91810200000002
20
9.5250000000000021
10
109.91810200000002
20
-0.94802400000000731
10
109.91810200000002
20
-31.851551411494547
10
91.206022578514279
20
-54.96765563596891
10
75.32890957253214
20
-42.080618361708233
10
-13.389571956211107
20
-14.472695595244316
10
-17.473466068419398
20
32.206394280413797
10
5.3320866000000002
20
34.163329652239156
10
5.3320866000000011
20
61.251955999999993
10
24.332074000000006
20
61.251955999999993
10
24.332074000000006
20
67.251943999999995
10
53.532133999999999
20
67.251943999999995
10
53.532133999999999
20
57.251964000000001
10
72.53209600000001
20
57.251964000000001
10
72.53209600000001
20
51.251976000000006
0
LWPOLYLINE
5
228
100
AcDbEntity
8
0
100
AcDbPolyline
90
6
70
1
43
0.0
10
30.652926090924282
20
45.226767495437848
10
31.849996960397856
20
43.14661814179572
10
30.647070211214778
20
41.069849681880214
10
28.247072592558126
20
41.073230575606836
10
27.050001723084552
20
43.153379929248963
10
28.25292847226763
20
45.230148389164469
0
LWPOLYLINE
5
229
100
AcDbEntity
8
0
100
AcDbPolyline
90
6
70
1
43
0.0
10
68.613310981089327
20
35.239638117021229
10
69.831908534280075
20
33.172025966893088
10
68.650602663691103
20
31.082883453776272
10
66.250699239911398
20
31.061353090787598
10
65.032101686720651
20
33.128965240915747
10
66.213407557309608
20
35.218107754032559
0
LWPOLYLINE
5
230
100
AcDbEntity
8
0
100
AcDbPolyline
90
6
70
1
43
0.0
10
80.849174741442994
20
-26.063460042043101
10
82.049174741442982
20
-28.141921011125746
10
80.849174741442994
20
-30.220381980208394
10
78.449174741442988
20
-30.220381980208391
10
77.249174741442999
20
-28.141921011125742
10
78.449174741443002
20
-26.063460042043097
0
LWPOLYLINE
5
231
100
AcDbEntity
8
0
100
AcDbPolyline
90
6
70
1
43
0.0
10
41.614436279197228
20
-14.053424234612004
10
42.814436279197224
20
-16.131885203694658
10
41.614436279197228
20
-18.210346172777314
10
39.214436279197223
20
-18.210346172777314
10
38.014436279197227
20
-16.131885203694658
10
39.214436279197223
20
-14.053424234612004
0
LWPOLYLINE
5
232
100
AcDbEntity
8
0
100
AcDbPolyline
90
6
70
1
43
0.0
10
9.8334567763924881
20
12.369287362209132
10
11.033456776392487
20
10.29082639312648
10
9.8334567763924863
20
8.2123654240438295
10
7.4334567763924886
20
8.2123654240438295
10
6.2334567763924902
20
10.29082639312648
10
7.4334567763924886
20
12.369287362209132
0
CIRCLE
5
233
100
AcDbEntity
8
0
100
AcDbCircle
10
15.000000223517418
20
-8.0000001192092896
30
0
40
5.5
210
0
220
0
230
1
0
CIRCLE
5
234
100
AcDbEntity
8
0
100
AcDbCircle
10
20.000000298023231
20
35.000000521540684
30
0
40
5.4999999999999991
210
0
220
0
230
1
0
CIRCLE
5
235
100
AcDbEntity
8
0
100
AcDbCircle
10
56.000000834465027
20
43.000000640749931
30
0
40
5.4999999999999982
210
0
220
0
230
1
0
CIRCLE
5
236
100
AcDbEntity
8
0
100
AcDbCircle
10
74.000001102685957
20
-15.000000223517432
30
0
40
5.5000000000000036
210
0
220
0
230
1
0
CIRCLE
5
237
100
AcDbEntity
8
0
100
AcDbCircle
10
15.000000223517421
20
4.0000000596046457
30
0
40
3.0000000000000004
210
0
220
0
230
1
0
CIRCLE
5
238
100
AcDbEntity
8
0
100
AcDbCircle
10
20.000000298023224
20
23.000000342726707
30
0
40
3.0000000000000018
210
0
220
0
230
1
0
CIRCLE
5
239
100
AcDbEntity
8
0
100
AcDbCircle
10
56.000000834465027
20
31.000000461935997
30
0
40
2.999999999999996
210
0
220
0
230
1
0
CIRCLE
5
240
100
AcDbEntity
8
0
100
AcDbCircle
10
74.000001102685928
20
-3.0000000447034836
30
0
40
3.0000000000000036
210
0
220
0
230
1
0
ENDSEC
0
SECTION
2
OBJECTS
0
DICTIONARY
5
C
100
AcDbDictionary
3
ACAD_GROUP
350
D
3
ACAD_MLINESTYLE
350
17
0
DICTIONARY
5
D
100
AcDbDictionary
0
DICTIONARY
5
1A
330
C
100
AcDbDictionary
0
DICTIONARY
5
17
100
AcDbDictionary
0
ENDSEC
0
EOF
